<?xml version="1.0" encoding="UTF-8" standalone="no"?>
<!-- Created with Inkscape (http://www.inkscape.org/) -->

<svg
   xmlns:dc="http://purl.org/dc/elements/1.1/"
   xmlns:cc="http://creativecommons.org/ns#"
   xmlns:rdf="http://www.w3.org/1999/02/22-rdf-syntax-ns#"
   xmlns:svg="http://www.w3.org/2000/svg"
   xmlns="http://www.w3.org/2000/svg"
   xmlns:sodipodi="http://sodipodi.sourceforge.net/DTD/sodipodi-0.dtd"
   xmlns:inkscape="http://www.inkscape.org/namespaces/inkscape"
   width="17.584049mm"
   height="26.337196mm"
   viewBox="0 0 17.584049 26.337196"
   version="1.1"
   id="svg9637"
   sodipodi:docname="and_truth_table.svg"
   inkscape:version="0.92.4 (5da689c313, 2019-01-14)">
  <defs
     id="defs9631" />
  <sodipodi:namedview
     id="base"
     pagecolor="#ffffff"
     bordercolor="#666666"
     borderopacity="1.0"
     inkscape:pageopacity="0.0"
     inkscape:pageshadow="2"
     inkscape:zoom="3.959798"
     inkscape:cx="39.99963"
     inkscape:cy="43.714511"
     inkscape:document-units="mm"
     inkscape:current-layer="g10203"
     showgrid="true"
     inkscape:window-width="927"
     inkscape:window-height="1168"
     inkscape:window-x="984"
     inkscape:window-y="0"
     inkscape:window-maximized="0"
     borderlayer="true"
     fit-margin-top="0"
     fit-margin-left="0"
     fit-margin-right="0"
     fit-margin-bottom="0">
    <inkscape:grid
       id="grid10183"
       units="mm"
       type="xygrid"
       empspacing="1"
       spacingy="2.54"
       spacingx="2.54"
       originx="38.100001"
       originy="-139.7" />
  </sodipodi:namedview>
  <metadata
     id="metadata9634">
    <rdf:RDF>
      <cc:Work
         rdf:about="">
        <dc:format>image/svg+xml</dc:format>
        <dc:type
           rdf:resource="http://purl.org/dc/dcmitype/StillImage" />
        <dc:title></dc:title>
      </cc:Work>
    </rdf:RDF>
  </metadata>
  <g
     id="g10189"
     sodipodi:insensitive="true"
     inkscape:groupmode="layer"
     inkscape:label="[fixed] BG"
     transform="translate(38.1,128.0372)">
    <rect
       id="rect10187"
       style="fill:#ffffff;fill-opacity:1;stroke:none"
       height="38"
       width="29"
       y="0"
       x="0" />
  </g>
  <g
     id="g10191"
     inkscape:groupmode="layer"
     inkscape:label="F.Cu-disabled"
     transform="translate(38.1,128.0372)" />
  <g
     id="g10193"
     inkscape:groupmode="layer"
     inkscape:label="B.Cu-disabled"
     transform="translate(38.1,128.0372)" />
  <g
     id="g10195"
     inkscape:groupmode="layer"
     inkscape:label="B.Adhes-disabled"
     transform="translate(38.1,128.0372)" />
  <g
     id="g10197"
     inkscape:groupmode="layer"
     inkscape:label="F.Adhes-disabled"
     transform="translate(38.1,128.0372)" />
  <g
     id="g10199"
     inkscape:groupmode="layer"
     inkscape:label="B.Paste-disabled"
     transform="translate(38.1,128.0372)" />
  <g
     id="g10201"
     inkscape:groupmode="layer"
     inkscape:label="F.Paste-disabled"
     transform="translate(38.1,128.0372)" />
  <g
     id="g10203"
     inkscape:groupmode="layer"
     inkscape:label="B.SilkS-disabled"
     transform="translate(38.1,128.0372)" />
  <g
     id="g10205"
     inkscape:groupmode="layer"
     inkscape:label="F.SilkS"
     transform="translate(38.1,128.0372)">
    <path
       transform="translate(0,1.0625e-6)"
       inkscape:connector-curvature="0"
       id="path10468"
       style="font-style:normal;font-variant:normal;font-weight:normal;font-stretch:normal;font-size:4.23333311px;line-height:1.25;font-family:'Courier New';-inkscape-font-specification:'Courier New';text-align:center;letter-spacing:-0.26458332px;word-spacing:0px;text-anchor:middle;fill:#000000;fill-opacity:1;stroke:none;stroke-width:0.26458332"
       d="m -26.215486,-125.48952 q 0,0.34727 -0.14056,0.64492 -0.14056,0.29559 -0.388607,0.46096 -0.245979,0.16536 -0.529166,0.16536 -0.419613,0 -0.740007,-0.35553 -0.318327,-0.3576 -0.318327,-0.91571 0,-0.56017 0.318327,-0.91571 0.320394,-0.35553 0.740007,-0.35553 0.283187,0 0.529166,0.16537 0.24598,0.16536 0.38654,0.46095 0.142627,0.29559 0.142627,0.64492 z m -0.1757,0 q 0,-0.42375 -0.24598,-0.76068 -0.245979,-0.33693 -0.636653,-0.33693 -0.365869,0 -0.626319,0.32246 -0.258382,0.3204 -0.258382,0.77515 0,0.48369 0.270785,0.79168 0.272851,0.30593 0.613916,0.30593 0.390674,0 0.636653,-0.33486 0.24598,-0.33693 0.24598,-0.76275 z" />
    <path
       transform="translate(0,1.0625e-6)"
       inkscape:connector-curvature="0"
       id="path10470"
       style="font-style:normal;font-variant:normal;font-weight:normal;font-stretch:normal;font-size:4.23333311px;line-height:1.25;font-family:'Courier New';-inkscape-font-specification:'Courier New';text-align:center;letter-spacing:-0.26458332px;word-spacing:0px;text-anchor:middle;fill:#000000;fill-opacity:1;stroke:none;stroke-width:0.26458332"
       d="m -24.408878,-124.28649 v -0.25425 q -0.355534,0.32246 -0.768945,0.32246 -0.254248,0 -0.38654,-0.13849 -0.171566,-0.1819 -0.171566,-0.42375 v -1.12034 h -0.233577 q -0.06201,0 -0.08888,-0.0248 -0.02687,-0.0248 -0.02687,-0.0641 0,-0.0372 0.02687,-0.062 0.02687,-0.0248 0.08888,-0.0248 h 0.40721 v 1.29604 q 0,0.1695 0.107487,0.27905 0.107487,0.10956 0.268718,0.10956 0.423746,0 0.777213,-0.38861 v -1.12034 h -0.320394 q -0.06201,0 -0.08888,-0.0248 -0.02687,-0.0248 -0.02687,-0.0641 0,-0.0372 0.02687,-0.062 0.02687,-0.0248 0.08888,-0.0248 h 0.494027 v 1.61644 h 0.146761 q 0.06201,0 0.08888,0.0248 0.02687,0.0227 0.02687,0.062 0,0.0372 -0.02687,0.062 -0.02687,0.0248 -0.08888,0.0248 z" />
    <path
       transform="translate(0,1.0625e-6)"
       inkscape:connector-curvature="0"
       id="path10472"
       style="font-style:normal;font-variant:normal;font-weight:normal;font-stretch:normal;font-size:4.23333311px;line-height:1.25;font-family:'Courier New';-inkscape-font-specification:'Courier New';text-align:center;letter-spacing:-0.26458332px;word-spacing:0px;text-anchor:middle;fill:#000000;fill-opacity:1;stroke:none;stroke-width:0.26458332"
       d="m -23.085961,-126.07656 h 0.942578 q 0.06201,0 0.08888,0.0248 0.02687,0.0248 0.02687,0.0641 0,0.0372 -0.02687,0.062 -0.02687,0.0248 -0.08888,0.0248 h -0.942578 v 1.15548 q 0,0.1509 0.119889,0.25218 0.121956,0.10129 0.355534,0.10129 0.1757,0 0.380338,-0.0517 0.204639,-0.0537 0.318327,-0.11989 0.04134,-0.0269 0.06821,-0.0269 0.03307,0 0.05788,0.0269 0.0248,0.0248 0.0248,0.06 0,0.031 -0.02687,0.0579 -0.06615,0.0682 -0.322461,0.14882 -0.254248,0.0786 -0.487826,0.0786 -0.303857,0 -0.483691,-0.14263 -0.179834,-0.14262 -0.179834,-0.38447 v -1.15548 h -0.320394 q -0.06201,0 -0.08888,-0.0248 -0.02687,-0.0248 -0.02687,-0.0641 0,-0.0372 0.02687,-0.062 0.02687,-0.0248 0.08888,-0.0248 h 0.320394 v -0.51263 q 0,-0.062 0.02481,-0.0889 0.0248,-0.0269 0.06201,-0.0269 0.03927,0 0.06408,0.0269 0.02481,0.0269 0.02481,0.0889 z" />
    <path
       transform="translate(0,1.0625e-6)"
       inkscape:connector-curvature="0"
       id="path10474"
       style="font-style:normal;font-variant:normal;font-weight:normal;font-stretch:normal;font-size:4.23333311px;line-height:1.25;font-family:'Courier New';-inkscape-font-specification:'Courier New';text-align:center;letter-spacing:-0.26458332px;word-spacing:0px;text-anchor:middle;fill:#000000;fill-opacity:1;stroke:none;stroke-width:0.26458332"
       d="m -24.206306,-120.50584 v 0.42994 q 0,0.56018 -0.266651,0.88677 -0.208773,0.25632 -0.527099,0.25632 -0.152963,0 -0.289388,-0.062 -0.134359,-0.0599 -0.229444,-0.16949 -0.05994,-0.0682 -0.132291,-0.21911 -0.07028,-0.1509 -0.101286,-0.27699 -0.04754,-0.17776 -0.04754,-0.41548 v -0.42994 q 0,-0.56224 0.26665,-0.88884 0.208773,-0.25631 0.527099,-0.25631 0.15503,0 0.289389,0.062 0.134358,0.0599 0.229443,0.1695 0.06201,0.0703 0.132292,0.22117 0.07028,0.1509 0.103352,0.27492 0.04548,0.17777 0.04548,0.41755 z m -0.173633,0.0227 q 0,-0.24598 -0.07028,-0.45682 -0.06821,-0.2129 -0.155029,-0.33899 -0.05168,-0.0724 -0.134359,-0.12403 -0.117822,-0.0723 -0.264583,-0.0723 -0.291456,0 -0.45682,0.29765 -0.165365,0.29766 -0.165365,0.69453 v 0.38241 q 0,0.24598 0.06821,0.45889 0.07028,0.2129 0.159164,0.33899 0.04961,0.0703 0.132291,0.12196 0.117823,0.0744 0.266651,0.0744 0.289388,0 0.454752,-0.29765 0.165365,-0.29973 0.165365,-0.6966 z" />
    <path
       transform="translate(0,1.0625e-6)"
       inkscape:connector-curvature="0"
       id="path10476"
       style="font-style:normal;font-variant:normal;font-weight:normal;font-stretch:normal;font-size:4.23333311px;line-height:1.25;font-family:'Courier New';-inkscape-font-specification:'Courier New';text-align:center;letter-spacing:-0.26458332px;word-spacing:0px;text-anchor:middle;fill:#000000;fill-opacity:1;stroke:none;stroke-width:0.26458332"
       d="m -24.206306,-115.21418 v 0.42995 q 0,0.56017 -0.266651,0.88677 -0.208773,0.25631 -0.527099,0.25631 -0.152963,0 -0.289388,-0.062 -0.134359,-0.0599 -0.229444,-0.1695 -0.05994,-0.0682 -0.132291,-0.21911 -0.07028,-0.15089 -0.101286,-0.27698 -0.04754,-0.17777 -0.04754,-0.41548 v -0.42995 q 0,-0.56224 0.26665,-0.88883 0.208773,-0.25632 0.527099,-0.25632 0.15503,0 0.289389,0.062 0.134358,0.06 0.229443,0.1695 0.06201,0.0703 0.132292,0.22118 0.07028,0.15089 0.103352,0.27492 0.04548,0.17776 0.04548,0.41754 z m -0.173633,0.0227 q 0,-0.24598 -0.07028,-0.45682 -0.06821,-0.21291 -0.155029,-0.339 -0.05168,-0.0723 -0.134359,-0.12402 -0.117822,-0.0724 -0.264583,-0.0724 -0.291456,0 -0.45682,0.29766 -0.165365,0.29766 -0.165365,0.69453 v 0.38241 q 0,0.24598 0.06821,0.45888 0.07028,0.21291 0.159164,0.339 0.04961,0.0703 0.132291,0.12196 0.117823,0.0744 0.266651,0.0744 0.289388,0 0.454752,-0.29766 0.165365,-0.29972 0.165365,-0.69659 z" />
    <path
       transform="translate(0,1.0625e-6)"
       inkscape:connector-curvature="0"
       id="path10478"
       style="font-style:normal;font-variant:normal;font-weight:normal;font-stretch:normal;font-size:4.23333311px;line-height:1.25;font-family:'Courier New';-inkscape-font-specification:'Courier New';text-align:center;letter-spacing:-0.26458332px;word-spacing:0px;text-anchor:middle;fill:#000000;fill-opacity:1;stroke:none;stroke-width:0.26458332"
       d="m -24.206306,-109.92251 v 0.42995 q 0,0.56017 -0.266651,0.88676 -0.208773,0.25632 -0.527099,0.25632 -0.152963,0 -0.289388,-0.062 -0.134359,-0.06 -0.229444,-0.1695 -0.05994,-0.0682 -0.132291,-0.21911 -0.07028,-0.15089 -0.101286,-0.27698 -0.04754,-0.17777 -0.04754,-0.41548 v -0.42995 q 0,-0.56224 0.26665,-0.88884 0.208773,-0.25631 0.527099,-0.25631 0.15503,0 0.289389,0.062 0.134358,0.06 0.229443,0.1695 0.06201,0.0703 0.132292,0.22117 0.07028,0.1509 0.103352,0.27492 0.04548,0.17777 0.04548,0.41755 z m -0.173633,0.0227 q 0,-0.24598 -0.07028,-0.45682 -0.06821,-0.21291 -0.155029,-0.339 -0.05168,-0.0724 -0.134359,-0.12402 -0.117822,-0.0724 -0.264583,-0.0724 -0.291456,0 -0.45682,0.29766 -0.165365,0.29765 -0.165365,0.69453 v 0.3824 q 0,0.24598 0.06821,0.45889 0.07028,0.21291 0.159164,0.339 0.04961,0.0703 0.132291,0.12195 0.117823,0.0744 0.266651,0.0744 0.289388,0 0.454752,-0.29766 0.165365,-0.29972 0.165365,-0.6966 z" />
    <path
       transform="translate(0,1.0625e-6)"
       inkscape:connector-curvature="0"
       id="path10480"
       style="font-style:normal;font-variant:normal;font-weight:normal;font-stretch:normal;font-size:4.23333311px;line-height:1.25;font-family:'Courier New';-inkscape-font-specification:'Courier New';text-align:center;letter-spacing:-0.26458332px;word-spacing:0px;text-anchor:middle;fill:#000000;fill-opacity:1;stroke:none;stroke-width:0.26458332"
       d="m -24.917374,-105.74912 v 2.45566 h 0.595312 q 0.06201,0 0.08888,0.0248 0.02687,0.0227 0.02687,0.062 0,0.0372 -0.02687,0.062 -0.02687,0.0248 -0.08888,0.0248 h -1.364257 q -0.06201,0 -0.08888,-0.0248 -0.02687,-0.0248 -0.02687,-0.062 0,-0.0393 0.02687,-0.062 0.02687,-0.0248 0.08888,-0.0248 h 0.595312 v -2.21588 l -0.566374,0.17776 q -0.04134,0.0124 -0.05994,0.0124 -0.03101,0 -0.05788,-0.0248 -0.0248,-0.0269 -0.0248,-0.062 0,-0.031 0.02067,-0.0579 0.01654,-0.0165 0.06821,-0.0351 z" />
    <path
       transform="translate(0,1.0625e-6)"
       inkscape:connector-curvature="0"
       id="path10483"
       style="font-style:normal;font-variant:normal;font-weight:normal;font-stretch:normal;font-size:4.23333311px;line-height:1.25;font-family:courier;-inkscape-font-specification:courier;text-align:center;letter-spacing:-0.26458332px;word-spacing:0px;text-anchor:middle;fill:#000000;fill-opacity:1;stroke:none;stroke-width:0.26458332"
       d="m -35.023492,-126.55922 v 2.07119 h 0.595312 q 0.06201,0 0.08888,0.0248 0.02687,0.0227 0.02687,0.062 0,0.0372 -0.02687,0.062 -0.02687,0.0248 -0.08888,0.0248 h -1.364258 q -0.06201,0 -0.08888,-0.0248 -0.02687,-0.0248 -0.02687,-0.062 0,-0.0393 0.02687,-0.062 0.02687,-0.0248 0.08888,-0.0248 h 0.595313 v -2.07119 h -0.595313 q -0.06201,0 -0.08888,-0.0227 -0.02687,-0.0248 -0.02687,-0.0641 0,-0.0393 0.02687,-0.062 0.02687,-0.0248 0.08888,-0.0248 h 1.364258 q 0.06201,0 0.08888,0.0248 0.02687,0.0227 0.02687,0.062 0,0.0393 -0.02687,0.0641 -0.02687,0.0227 -0.08888,0.0227 z" />
    <path
       transform="translate(0,1.0625e-6)"
       inkscape:connector-curvature="0"
       id="path10485"
       style="font-style:normal;font-variant:normal;font-weight:normal;font-stretch:normal;font-size:4.23333311px;line-height:1.25;font-family:courier;-inkscape-font-specification:courier;text-align:center;letter-spacing:-0.26458332px;word-spacing:0px;text-anchor:middle;fill:#000000;fill-opacity:1;stroke:none;stroke-width:0.26458332"
       d="m -33.398785,-126.10447 v 0.26252 q 0.181901,-0.18397 0.328662,-0.25425 0.146761,-0.0703 0.330729,-0.0703 0.198437,0 0.361735,0.0848 0.115755,0.062 0.208773,0.2067 0.09508,0.14263 0.09508,0.29352 v 1.09348 h 0.146761 q 0.06201,0 0.08888,0.0248 0.02687,0.0227 0.02687,0.062 0,0.0372 -0.02687,0.062 -0.02687,0.0248 -0.08888,0.0248 h -0.465088 q -0.06408,0 -0.09095,-0.0248 -0.02687,-0.0248 -0.02687,-0.062 0,-0.0393 0.02687,-0.062 0.02687,-0.0248 0.09095,-0.0248 h 0.144694 v -1.06454 q 0,-0.18397 -0.134358,-0.31006 -0.134359,-0.12815 -0.359668,-0.12815 -0.171566,0 -0.297656,0.0703 -0.126091,0.0682 -0.359668,0.34313 v 1.08934 h 0.19637 q 0.06201,0 0.08888,0.0248 0.02687,0.0227 0.02687,0.062 0,0.0372 -0.02687,0.062 -0.02687,0.0248 -0.08888,0.0248 h -0.566374 q -0.06201,0 -0.08888,-0.0248 -0.02687,-0.0248 -0.02687,-0.062 0,-0.0393 0.02687,-0.062 0.02687,-0.0248 0.08888,-0.0248 h 0.196371 v -1.44074 h -0.146761 q -0.06201,0 -0.08888,-0.0248 -0.02687,-0.0248 -0.02687,-0.0641 0,-0.0372 0.02687,-0.062 0.02687,-0.0248 0.08888,-0.0248 z" />
    <path
       transform="translate(0,1.0625e-6)"
       inkscape:connector-curvature="0"
       id="path10487"
       style="font-style:normal;font-variant:normal;font-weight:normal;font-stretch:normal;font-size:4.23333311px;line-height:1.25;font-family:courier;-inkscape-font-specification:courier;text-align:center;letter-spacing:-0.26458332px;word-spacing:0px;text-anchor:middle;fill:#000000;fill-opacity:1;stroke:none;stroke-width:0.26458332"
       d="m -35.451373,-120.53375 v 0.42995 q 0,0.56017 -0.266651,0.88676 -0.208772,0.25632 -0.527099,0.25632 -0.152962,0 -0.289388,-0.062 -0.134359,-0.06 -0.229444,-0.1695 -0.05994,-0.0682 -0.132291,-0.21911 -0.07028,-0.1509 -0.101286,-0.27699 -0.04754,-0.17776 -0.04754,-0.41547 v -0.42995 q 0,-0.56224 0.26665,-0.88884 0.208773,-0.25631 0.5271,-0.25631 0.155029,0 0.289388,0.062 0.134358,0.0599 0.229443,0.1695 0.06201,0.0703 0.132292,0.22117 0.07028,0.1509 0.103353,0.27492 0.04548,0.17777 0.04548,0.41755 z m -0.173633,0.0227 q 0,-0.24598 -0.07028,-0.45682 -0.06821,-0.21291 -0.155029,-0.339 -0.05168,-0.0724 -0.134359,-0.12402 -0.117822,-0.0724 -0.264583,-0.0724 -0.291455,0 -0.45682,0.29765 -0.165364,0.29766 -0.165364,0.69454 v 0.3824 q 0,0.24598 0.06821,0.45889 0.07028,0.2129 0.159164,0.339 0.04961,0.0703 0.132291,0.12195 0.117823,0.0744 0.266651,0.0744 0.289388,0 0.454752,-0.29766 0.165365,-0.29972 0.165365,-0.6966 z" />
    <path
       transform="translate(0,1.0625e-6)"
       inkscape:connector-curvature="0"
       id="path10489"
       style="font-style:normal;font-variant:normal;font-weight:normal;font-stretch:normal;font-size:4.23333311px;line-height:1.25;font-family:courier;-inkscape-font-specification:courier;text-align:center;letter-spacing:-0.26458332px;word-spacing:0px;text-anchor:middle;fill:#000000;fill-opacity:1;stroke:none;stroke-width:0.26458332"
       d="m -30.903847,-120.53375 v 0.42995 q 0,0.56017 -0.266651,0.88676 -0.208772,0.25632 -0.527099,0.25632 -0.152963,0 -0.289388,-0.062 -0.134359,-0.06 -0.229444,-0.1695 -0.05994,-0.0682 -0.132291,-0.21911 -0.07028,-0.1509 -0.101286,-0.27699 -0.04754,-0.17776 -0.04754,-0.41547 v -0.42995 q 0,-0.56224 0.26665,-0.88884 0.208773,-0.25631 0.5271,-0.25631 0.155029,0 0.289388,0.062 0.134358,0.0599 0.229443,0.1695 0.06201,0.0703 0.132292,0.22117 0.07028,0.1509 0.103352,0.27492 0.04548,0.17777 0.04548,0.41755 z m -0.173633,0.0227 q 0,-0.24598 -0.07028,-0.45682 -0.06821,-0.21291 -0.155029,-0.339 -0.05168,-0.0724 -0.134359,-0.12402 -0.117822,-0.0724 -0.264583,-0.0724 -0.291455,0 -0.45682,0.29765 -0.165365,0.29766 -0.165365,0.69454 v 0.3824 q 0,0.24598 0.06821,0.45889 0.07028,0.2129 0.159164,0.339 0.04961,0.0703 0.132291,0.12195 0.117823,0.0744 0.266651,0.0744 0.289388,0 0.454752,-0.29766 0.165365,-0.29972 0.165365,-0.6966 z" />
    <path
       transform="translate(0,1.0625e-6)"
       inkscape:connector-curvature="0"
       id="path10491"
       style="font-style:normal;font-variant:normal;font-weight:normal;font-stretch:normal;font-size:4.23333311px;line-height:1.25;font-family:courier;-inkscape-font-specification:courier;text-align:center;letter-spacing:-0.26458332px;word-spacing:0px;text-anchor:middle;fill:#000000;fill-opacity:1;stroke:none;stroke-width:0.26458332"
       d="m -35.451373,-115.24209 v 0.42995 q 0,0.56017 -0.266651,0.88677 -0.208772,0.25631 -0.527099,0.25631 -0.152962,0 -0.289388,-0.062 -0.134359,-0.0599 -0.229444,-0.1695 -0.05994,-0.0682 -0.132291,-0.2191 -0.07028,-0.1509 -0.101286,-0.27699 -0.04754,-0.17777 -0.04754,-0.41548 v -0.42995 q 0,-0.56224 0.26665,-0.88883 0.208773,-0.25632 0.5271,-0.25632 0.155029,0 0.289388,0.062 0.134358,0.0599 0.229443,0.16949 0.06201,0.0703 0.132292,0.22118 0.07028,0.1509 0.103353,0.27492 0.04548,0.17777 0.04548,0.41754 z m -0.173633,0.0227 q 0,-0.24598 -0.07028,-0.45682 -0.06821,-0.2129 -0.155029,-0.339 -0.05168,-0.0723 -0.134359,-0.12402 -0.117822,-0.0724 -0.264583,-0.0724 -0.291455,0 -0.45682,0.29766 -0.165364,0.29766 -0.165364,0.69453 v 0.38241 q 0,0.24598 0.06821,0.45888 0.07028,0.21291 0.159164,0.339 0.04961,0.0703 0.132291,0.12196 0.117823,0.0744 0.266651,0.0744 0.289388,0 0.454752,-0.29765 0.165365,-0.29973 0.165365,-0.6966 z" />
    <path
       transform="translate(0,1.0625e-6)"
       inkscape:connector-curvature="0"
       id="path10493"
       style="font-style:normal;font-variant:normal;font-weight:normal;font-stretch:normal;font-size:4.23333311px;line-height:1.25;font-family:courier;-inkscape-font-specification:courier;text-align:center;letter-spacing:-0.26458332px;word-spacing:0px;text-anchor:middle;fill:#000000;fill-opacity:1;stroke:none;stroke-width:0.26458332"
       d="m -31.614915,-116.36036 v 2.45566 h 0.595312 q 0.06201,0 0.08888,0.0248 0.02687,0.0227 0.02687,0.062 0,0.0372 -0.02687,0.062 -0.02687,0.0248 -0.08888,0.0248 h -1.364257 q -0.06201,0 -0.08888,-0.0248 -0.02687,-0.0248 -0.02687,-0.062 0,-0.0393 0.02687,-0.062 0.02687,-0.0248 0.08888,-0.0248 h 0.595312 v -2.21589 l -0.566373,0.17777 q -0.04134,0.0124 -0.05995,0.0124 -0.03101,0 -0.05788,-0.0248 -0.0248,-0.0269 -0.0248,-0.062 0,-0.031 0.02067,-0.0579 0.01654,-0.0165 0.06821,-0.0351 z" />
    <path
       transform="translate(0,1.0625e-6)"
       inkscape:connector-curvature="0"
       id="path10495"
       style="font-style:normal;font-variant:normal;font-weight:normal;font-stretch:normal;font-size:4.23333311px;line-height:1.25;font-family:courier;-inkscape-font-specification:courier;text-align:center;letter-spacing:-0.26458332px;word-spacing:0px;text-anchor:middle;fill:#000000;fill-opacity:1;stroke:none;stroke-width:0.26458332"
       d="m -36.162441,-111.0687 v 2.45567 h 0.595313 q 0.06201,0 0.08888,0.0248 0.02687,0.0227 0.02687,0.062 0,0.0372 -0.02687,0.062 -0.02687,0.0248 -0.08888,0.0248 h -1.364258 q -0.06201,0 -0.08888,-0.0248 -0.02687,-0.0248 -0.02687,-0.062 0,-0.0393 0.02687,-0.062 0.02687,-0.0248 0.08888,-0.0248 h 0.595312 v -2.21589 l -0.566373,0.17777 q -0.04134,0.0124 -0.05994,0.0124 -0.03101,0 -0.05788,-0.0248 -0.0248,-0.0269 -0.0248,-0.062 0,-0.031 0.02067,-0.0579 0.01654,-0.0165 0.06821,-0.0351 z" />
    <path
       transform="translate(0,1.0625e-6)"
       inkscape:connector-curvature="0"
       id="path10497"
       style="font-style:normal;font-variant:normal;font-weight:normal;font-stretch:normal;font-size:4.23333311px;line-height:1.25;font-family:courier;-inkscape-font-specification:courier;text-align:center;letter-spacing:-0.26458332px;word-spacing:0px;text-anchor:middle;fill:#000000;fill-opacity:1;stroke:none;stroke-width:0.26458332"
       d="m -30.903847,-109.95042 v 0.42995 q 0,0.56017 -0.266651,0.88677 -0.208772,0.25631 -0.527099,0.25631 -0.152963,0 -0.289388,-0.062 -0.134359,-0.06 -0.229444,-0.1695 -0.05994,-0.0682 -0.132291,-0.21911 -0.07028,-0.15089 -0.101286,-0.27698 -0.04754,-0.17777 -0.04754,-0.41548 v -0.42995 q 0,-0.56224 0.26665,-0.88883 0.208773,-0.25632 0.5271,-0.25632 0.155029,0 0.289388,0.062 0.134358,0.06 0.229443,0.1695 0.06201,0.0703 0.132292,0.22118 0.07028,0.15089 0.103352,0.27492 0.04548,0.17776 0.04548,0.41754 z m -0.173633,0.0227 q 0,-0.24598 -0.07028,-0.45682 -0.06821,-0.21291 -0.155029,-0.339 -0.05168,-0.0724 -0.134359,-0.12402 -0.117822,-0.0724 -0.264583,-0.0724 -0.291455,0 -0.45682,0.29766 -0.165365,0.29765 -0.165365,0.69453 v 0.3824 q 0,0.24598 0.06821,0.45889 0.07028,0.21291 0.159164,0.339 0.04961,0.0703 0.132291,0.12195 0.117823,0.0744 0.266651,0.0744 0.289388,0 0.454752,-0.29766 0.165365,-0.29972 0.165365,-0.6966 z" />
    <path
       transform="translate(0,1.0625e-6)"
       inkscape:connector-curvature="0"
       id="path10499"
       style="font-style:normal;font-variant:normal;font-weight:normal;font-stretch:normal;font-size:4.23333311px;line-height:1.25;font-family:courier;-inkscape-font-specification:courier;text-align:center;letter-spacing:-0.26458332px;word-spacing:0px;text-anchor:middle;fill:#000000;fill-opacity:1;stroke:none;stroke-width:0.26458332"
       d="m -36.162441,-105.77703 v 2.45566 h 0.595313 q 0.06201,0 0.08888,0.0248 0.02687,0.0227 0.02687,0.062 0,0.0372 -0.02687,0.062 -0.02687,0.0248 -0.08888,0.0248 h -1.364258 q -0.06201,0 -0.08888,-0.0248 -0.02687,-0.0248 -0.02687,-0.062 0,-0.0393 0.02687,-0.062 0.02687,-0.0248 0.08888,-0.0248 h 0.595312 v -2.21588 l -0.566373,0.17776 q -0.04134,0.0124 -0.05994,0.0124 -0.03101,0 -0.05788,-0.0248 -0.0248,-0.0269 -0.0248,-0.062 0,-0.031 0.02067,-0.0579 0.01654,-0.0165 0.06821,-0.0351 z" />
    <path
       transform="translate(0,1.0625e-6)"
       inkscape:connector-curvature="0"
       id="path10501"
       style="font-style:normal;font-variant:normal;font-weight:normal;font-stretch:normal;font-size:4.23333311px;line-height:1.25;font-family:courier;-inkscape-font-specification:courier;text-align:center;letter-spacing:-0.26458332px;word-spacing:0px;text-anchor:middle;fill:#000000;fill-opacity:1;stroke:none;stroke-width:0.26458332"
       d="m -31.614915,-105.77703 v 2.45566 h 0.595312 q 0.06201,0 0.08888,0.0248 0.02687,0.0227 0.02687,0.062 0,0.0372 -0.02687,0.062 -0.02687,0.0248 -0.08888,0.0248 h -1.364257 q -0.06201,0 -0.08888,-0.0248 -0.02687,-0.0248 -0.02687,-0.062 0,-0.0393 0.02687,-0.062 0.02687,-0.0248 0.08888,-0.0248 h 0.595312 v -2.21588 l -0.566373,0.17776 q -0.04134,0.0124 -0.05995,0.0124 -0.03101,0 -0.05788,-0.0248 -0.0248,-0.0269 -0.0248,-0.062 0,-0.031 0.02067,-0.0579 0.01654,-0.0165 0.06821,-0.0351 z" />
    <path
       transform="translate(0,1.0625e-6)"
       style="color:#000000;font-style:normal;font-variant:normal;font-weight:normal;font-stretch:normal;font-size:medium;line-height:normal;font-family:sans-serif;font-variant-ligatures:normal;font-variant-position:normal;font-variant-caps:normal;font-variant-numeric:normal;font-variant-alternates:normal;font-feature-settings:normal;text-indent:0;text-align:start;text-decoration:none;text-decoration-line:none;text-decoration-style:solid;text-decoration-color:#000000;letter-spacing:normal;word-spacing:normal;text-transform:none;writing-mode:lr-tb;direction:ltr;text-orientation:mixed;dominant-baseline:auto;baseline-shift:baseline;text-anchor:start;white-space:normal;shape-padding:0;clip-rule:nonzero;display:inline;overflow:visible;visibility:visible;opacity:1;isolation:auto;mix-blend-mode:normal;color-interpolation:sRGB;color-interpolation-filters:linearRGB;solid-color:#000000;solid-opacity:1;vector-effect:none;fill:#000000;fill-opacity:1;fill-rule:nonzero;stroke:none;stroke-width:0.2;stroke-linecap:butt;stroke-linejoin:miter;stroke-miterlimit:4;stroke-dasharray:none;stroke-dashoffset:0;stroke-opacity:1;color-rendering:auto;image-rendering:auto;shape-rendering:auto;text-rendering:auto;enable-background:accumulate"
       d="m -38.099609,-117.74609 v 0.19921 h 17.583984 v -0.19921 z"
       id="path8622"
       inkscape:connector-curvature="0" />
    <path
       transform="translate(0,1.0625e-6)"
       style="color:#000000;font-style:normal;font-variant:normal;font-weight:normal;font-stretch:normal;font-size:medium;line-height:normal;font-family:sans-serif;font-variant-ligatures:normal;font-variant-position:normal;font-variant-caps:normal;font-variant-numeric:normal;font-variant-alternates:normal;font-feature-settings:normal;text-indent:0;text-align:start;text-decoration:none;text-decoration-line:none;text-decoration-style:solid;text-decoration-color:#000000;letter-spacing:normal;word-spacing:normal;text-transform:none;writing-mode:lr-tb;direction:ltr;text-orientation:mixed;dominant-baseline:auto;baseline-shift:baseline;text-anchor:start;white-space:normal;shape-padding:0;clip-rule:nonzero;display:inline;overflow:visible;visibility:visible;opacity:1;isolation:auto;mix-blend-mode:normal;color-interpolation:sRGB;color-interpolation-filters:linearRGB;solid-color:#000000;solid-opacity:1;vector-effect:none;fill:#000000;fill-opacity:1;fill-rule:nonzero;stroke:none;stroke-width:0.2;stroke-linecap:butt;stroke-linejoin:miter;stroke-miterlimit:4;stroke-dasharray:none;stroke-dashoffset:0;stroke-opacity:1;color-rendering:auto;image-rendering:auto;shape-rendering:auto;text-rendering:auto;enable-background:accumulate"
       d="m -38.099609,-112.43359 v 0.20117 h 17.583984 v -0.20117 z"
       id="path8622-3"
       inkscape:connector-curvature="0" />
    <path
       transform="translate(0,1.0625e-6)"
       style="color:#000000;font-style:normal;font-variant:normal;font-weight:normal;font-stretch:normal;font-size:medium;line-height:normal;font-family:sans-serif;font-variant-ligatures:normal;font-variant-position:normal;font-variant-caps:normal;font-variant-numeric:normal;font-variant-alternates:normal;font-feature-settings:normal;text-indent:0;text-align:start;text-decoration:none;text-decoration-line:none;text-decoration-style:solid;text-decoration-color:#000000;letter-spacing:normal;word-spacing:normal;text-transform:none;writing-mode:lr-tb;direction:ltr;text-orientation:mixed;dominant-baseline:auto;baseline-shift:baseline;text-anchor:start;white-space:normal;shape-padding:0;clip-rule:nonzero;display:inline;overflow:visible;visibility:visible;opacity:1;isolation:auto;mix-blend-mode:normal;color-interpolation:sRGB;color-interpolation-filters:linearRGB;solid-color:#000000;solid-opacity:1;vector-effect:none;fill:#000000;fill-opacity:1;fill-rule:nonzero;stroke:none;stroke-width:0.2;stroke-linecap:butt;stroke-linejoin:miter;stroke-miterlimit:4;stroke-dasharray:none;stroke-dashoffset:0;stroke-opacity:1;color-rendering:auto;image-rendering:auto;shape-rendering:auto;text-rendering:auto;enable-background:accumulate"
       d="m -38.099609,-107.11914 v 0.20117 h 17.583984 v -0.20117 z"
       id="path8622-4"
       inkscape:connector-curvature="0" />
    <path
       transform="translate(0,1.0625e-6)"
       style="color:#000000;font-style:normal;font-variant:normal;font-weight:normal;font-stretch:normal;font-size:medium;line-height:normal;font-family:sans-serif;font-variant-ligatures:normal;font-variant-position:normal;font-variant-caps:normal;font-variant-numeric:normal;font-variant-alternates:normal;font-feature-settings:normal;text-indent:0;text-align:start;text-decoration:none;text-decoration-line:none;text-decoration-style:solid;text-decoration-color:#000000;letter-spacing:normal;word-spacing:normal;text-transform:none;writing-mode:lr-tb;direction:ltr;text-orientation:mixed;dominant-baseline:auto;baseline-shift:baseline;text-anchor:start;white-space:normal;shape-padding:0;clip-rule:nonzero;display:inline;overflow:visible;visibility:visible;opacity:1;isolation:auto;mix-blend-mode:normal;color-interpolation:sRGB;color-interpolation-filters:linearRGB;solid-color:#000000;solid-opacity:1;vector-effect:none;fill:#000000;fill-opacity:1;fill-rule:nonzero;stroke:none;stroke-width:0.2;stroke-linecap:butt;stroke-linejoin:miter;stroke-miterlimit:4;stroke-dasharray:none;stroke-dashoffset:0;stroke-opacity:1;color-rendering:auto;image-rendering:auto;shape-rendering:auto;text-rendering:auto;enable-background:accumulate"
       d="m -38.099609,-123.06055 v 0.19922 h 17.583984 v -0.19922 z"
       id="path8622-8"
       inkscape:connector-curvature="0" />
    <path
       transform="translate(0,1.0625e-6)"
       style="color:#000000;font-style:normal;font-variant:normal;font-weight:normal;font-stretch:normal;font-size:medium;line-height:normal;font-family:sans-serif;font-variant-ligatures:normal;font-variant-position:normal;font-variant-caps:normal;font-variant-numeric:normal;font-variant-alternates:normal;font-feature-settings:normal;text-indent:0;text-align:start;text-decoration:none;text-decoration-line:none;text-decoration-style:solid;text-decoration-color:#000000;letter-spacing:normal;word-spacing:normal;text-transform:none;writing-mode:lr-tb;direction:ltr;text-orientation:mixed;dominant-baseline:auto;baseline-shift:baseline;text-anchor:start;white-space:normal;shape-padding:0;clip-rule:nonzero;display:inline;overflow:visible;visibility:visible;opacity:1;isolation:auto;mix-blend-mode:normal;color-interpolation:sRGB;color-interpolation-filters:linearRGB;solid-color:#000000;solid-opacity:1;vector-effect:none;fill:#000000;fill-opacity:1;fill-rule:nonzero;stroke:none;stroke-width:0.2;stroke-linecap:butt;stroke-linejoin:miter;stroke-miterlimit:4;stroke-dasharray:none;stroke-dashoffset:0;stroke-opacity:1;color-rendering:auto;image-rendering:auto;shape-rendering:auto;text-rendering:auto;enable-background:accumulate"
       d="m -29.035156,-128.03711 v 26.33789 h 0.199218 v -26.33789 z"
       id="path8622-8-5"
       inkscape:connector-curvature="0" />
  </g>
  <g
     id="g10207"
     inkscape:groupmode="layer"
     inkscape:label="B.Mask-disabled"
     transform="translate(38.1,128.0372)" />
  <g
     id="g10209"
     inkscape:groupmode="layer"
     inkscape:label="F.Mask-disabled"
     transform="translate(38.1,128.0372)" />
  <g
     id="g10211"
     inkscape:groupmode="layer"
     inkscape:label="Dwgs.User-disabled"
     transform="translate(38.1,128.0372)" />
  <g
     id="g10213"
     inkscape:groupmode="layer"
     inkscape:label="Cmts.User-disabled"
     transform="translate(38.1,128.0372)" />
  <g
     id="g10215"
     inkscape:groupmode="layer"
     inkscape:label="Eco1.User-disabled"
     transform="translate(38.1,128.0372)" />
  <g
     id="g10217"
     inkscape:groupmode="layer"
     inkscape:label="Eco2.User-disabled"
     transform="translate(38.1,128.0372)" />
  <g
     id="g10219"
     inkscape:groupmode="layer"
     inkscape:label="Edge.Cuts"
     transform="translate(38.1,128.0372)" />
  <g
     id="g10221"
     inkscape:groupmode="layer"
     inkscape:label="Margin-disabled"
     transform="translate(38.1,128.0372)" />
  <g
     id="g10223"
     inkscape:groupmode="layer"
     inkscape:label="B.CrtYd-disabled"
     transform="translate(38.1,128.0372)" />
  <g
     id="g10225"
     inkscape:groupmode="layer"
     inkscape:label="F.CrtYd-disabled"
     transform="translate(38.1,128.0372)" />
  <g
     id="g10227"
     inkscape:groupmode="layer"
     inkscape:label="B.Fab-disabled"
     transform="translate(38.1,128.0372)" />
  <g
     id="g10229"
     inkscape:groupmode="layer"
     inkscape:label="F.Fab-disabled"
     transform="translate(38.1,128.0372)" />
  <g
     id="g10231"
     inkscape:groupmode="layer"
     inkscape:label="Drill"
     transform="translate(38.1,128.0372)" />
</svg>
