<?xml version="1.0" encoding="UTF-8" standalone="no"?>
<!-- Created with Inkscape (http://www.inkscape.org/) -->

<svg
   xmlns:dc="http://purl.org/dc/elements/1.1/"
   xmlns:cc="http://creativecommons.org/ns#"
   xmlns:rdf="http://www.w3.org/1999/02/22-rdf-syntax-ns#"
   xmlns:svg="http://www.w3.org/2000/svg"
   xmlns="http://www.w3.org/2000/svg"
   xmlns:sodipodi="http://sodipodi.sourceforge.net/DTD/sodipodi-0.dtd"
   xmlns:inkscape="http://www.inkscape.org/namespaces/inkscape"
   width="29.0mm"
   height="38.0mm"
   viewBox="0 0 29.0 38.0"
   version="1.1"
   id="svg8"
   inkscape:version="0.92.4 (5da689c313, 2019-01-14)"
   sodipodi:docname="majora.svg">
  <defs
     id="defs2" />
  <sodipodi:namedview
     id="base"
     pagecolor="#ffffff"
     bordercolor="#666666"
     borderopacity="1.0"
     inkscape:pageopacity="0.0"
     inkscape:pageshadow="2"
     inkscape:zoom="7.9195959"
     inkscape:cx="56.25006"
     inkscape:cy="74.449334"
     inkscape:document-units="mm"
     inkscape:current-layer="g838"
     showgrid="true"
     inkscape:window-width="1858"
     inkscape:window-height="1177"
     inkscape:window-x="54"
     inkscape:window-y="-8"
     inkscape:window-maximized="1"
     borderlayer="true">
    <inkscape:grid
       id="grid816"
       units="mm"
       type="xygrid"
       empspacing="1"
       spacingy="2.54"
       spacingx="2.54" />
  </sodipodi:namedview>
  <metadata
     id="metadata5">
    <rdf:RDF>
      <cc:Work
         rdf:about="">
        <dc:format>image/svg+xml</dc:format>
        <dc:type
           rdf:resource="http://purl.org/dc/dcmitype/StillImage" />
        <dc:title></dc:title>
      </cc:Work>
    </rdf:RDF>
  </metadata>
  <g
     id="g822"
     sodipodi:insensitive="true"
     inkscape:groupmode="layer"
     inkscape:label="[fixed] BG">
    <rect
       id="rect820"
       style="stroke:none;fill-opacity:1;fill:#FFFFFF"
       height="38.0"
       width="29.0"
       y="0"
       x="0" />
  </g>
  <g
     id="g824"
     inkscape:groupmode="layer"
     inkscape:label="F.Cu"
     style="display:inline">
    <path
       style="display:inline;fill:#000000;stroke-width:0.01133385"
       d="m 0.01029328,12.32436 c 0.09292031,0 1.39982462,0.173914 1.96777332,0.261859 1.9076925,0.295397 3.3499343,0.686676 4.3166701,1.171108 l 0.1472337,0.07378 -0.028253,0.09383 c -0.3241764,1.076638 -0.7491597,1.705158 -1.3875027,2.052019 -0.052623,0.02859 -0.1090089,0.05527 -0.1253013,0.05929 -0.025024,0.0062 -0.069879,-0.01971 -0.2890135,-0.16675 C 4.3172116,15.671763 3.9600061,15.417734 3.6611436,15.193361 3.2425755,14.879117 3.0420231,14.720422 1.638051,13.592507 1.0132358,13.090548 0.47818986,12.679182 0.08700293,12.399998 7.9554192e-4,12.338473 -0.01351703,12.32436 0.01029328,12.32436 Z m 0.07352818,13.277609 c 0.34102868,-0.240197 0.92580794,-0.68962 1.55422954,-1.194477 1.4039721,-1.127915 1.6045245,-1.28661 2.0230926,-1.600853 0.2988625,-0.224373 0.656068,-0.478402 0.950756,-0.676136 0.2191345,-0.147037 0.2639896,-0.172916 0.2890135,-0.16675 0.016292,0.004 0.072678,0.03069 0.1253013,0.05929 0.638343,0.34686 1.0633263,0.97538 1.3875027,2.052019 l 0.028253,0.09383 -0.1472337,0.07378 c -0.9667358,0.484433 -2.4089776,0.875711 -4.3166701,1.171109 -0.6245882,0.09671 -1.92391249,0.267976 -1.97062496,0.259745 -0.01374584,-0.0024 0.01058364,-0.02521 0.07637982,-0.07156 z m 2.90478824,-6.85887 c 0.2162602,-0.390555 0.3861647,-0.662605 0.8768414,-1.40399 0.3729098,-0.563447 0.5545962,-0.845886 0.6909297,-1.074076 l 0.1002822,-0.167849 0.040597,0.006 c 0.1196221,0.01779 0.1509999,0.01881 0.23224,0.0075 0.2437142,-0.0339 0.4768413,-0.182521 0.6127194,-0.390619 0.030979,-0.04745 0.05903,-0.08609 0.062336,-0.08588 0.00331,2.14e-4 0.034061,0.0422 0.068346,0.0933 0.7169298,1.068668 1.7500503,1.725535 3.0601404,1.945662 0.2134788,0.03587 0.4762351,0.06871 0.5499017,0.06874 0.038819,1.2e-5 0.061415,0.01192 0.1530068,0.08062 0.3540141,0.265559 0.6363837,0.57132 0.8185827,0.886393 0.039,0.06745 0.08703,0.14261 0.106729,0.167024 0.06245,0.07741 0.06095,0.176458 -0.0039,0.253632 -0.01758,0.02094 -0.06387,0.09342 -0.102877,0.161075 -0.181312,0.314501 -0.4641442,0.620891 -0.8185833,0.886769 -0.091592,0.06871 -0.1141874,0.08061 -0.1530068,0.08063 -0.073666,0 -0.3364229,0.03287 -0.5499017,0.06874 -1.31009,0.220127 -2.3432105,0.876995 -3.0601403,1.945662 -0.034285,0.05111 -0.065041,0.09309 -0.068346,0.0933 -0.00331,2.14e-4 -0.031358,-0.03843 -0.062336,-0.08588 -0.1358782,-0.208099 -0.3690053,-0.356722 -0.6127195,-0.390619 -0.08124,-0.0113 -0.1126179,-0.01029 -0.2322399,0.0075 l -0.040598,0.006 -0.1002822,-0.16785 C 4.4200477,21.506776 4.2383614,21.224337 3.8654515,20.660891 3.6923505,20.399344 3.4969856,20.10098 3.4313093,19.99786 3.1489051,19.554456 2.8720281,19.06732 2.8670989,19.005191 c -0.00233,-0.02937 0.023511,-0.08511 0.1215108,-0.262092 z M 4.336342,18.591981 c 0.034123,0.149856 0.1867252,0.248019 0.334598,0.215233 0.2426535,-0.0538 0.3068335,-0.363554 0.1055408,-0.509369 -0.1561544,-0.113118 -0.3861531,-0.03087 -0.436496,0.156096 -0.017759,0.06595 -0.017998,0.075 -0.00364,0.13804 z m 0,0.94071 c 0.034123,0.149856 0.1867252,0.248018 0.334598,0.215233 0.2426535,-0.0538 0.3068335,-0.363554 0.1055408,-0.509369 -0.1561544,-0.113118 -0.3861531,-0.03087 -0.436496,0.156096 -0.017759,0.06595 -0.017998,0.075 -0.00364,0.13804 z m 0.9293762,-0.952044 c 0.034123,0.149856 0.1867252,0.248019 0.334598,0.215233 0.2426532,-0.0538 0.3068331,-0.363553 0.1055409,-0.509369 -0.1561545,-0.113118 -0.3861536,-0.03087 -0.4364965,0.156097 -0.017759,0.06595 -0.017998,0.075 -0.00364,0.138039 z m 0,0.963378 c 0.034123,0.149856 0.1867252,0.248018 0.334598,0.215233 0.2426532,-0.0538 0.3068331,-0.363554 0.1055409,-0.50937 -0.1561545,-0.113117 -0.3861536,-0.03087 -0.4364965,0.156097 -0.017759,0.06595 -0.017998,0.075 -0.00364,0.13804 z m 1.0540483,-0.997379 c 0.034123,0.149856 0.1867252,0.248018 0.3345981,0.215233 0.2426531,-0.0538 0.306833,-0.363554 0.1055408,-0.50937 -0.1561544,-0.113117 -0.3861536,-0.03087 -0.4364965,0.156097 -0.017759,0.06595 -0.017998,0.075 -0.00364,0.13804 z m 0,1.03138 c 0.034123,0.149856 0.1867252,0.248019 0.3345981,0.215233 0.2426531,-0.0538 0.306833,-0.363553 0.1055408,-0.509369 -0.1561544,-0.113118 -0.3861536,-0.03087 -0.4364965,0.156097 -0.017759,0.06595 -0.017998,0.075 -0.00364,0.138039 z m 1.1333852,-1.042714 c 0.034123,0.149856 0.1867252,0.248018 0.334598,0.215233 0.2426532,-0.0538 0.3068335,-0.363554 0.1055409,-0.509369 -0.1561545,-0.113118 -0.3861536,-0.03087 -0.4364961,0.156096 -0.017759,0.06595 -0.017998,0.075 -0.00364,0.13804 z m 0,1.054048 c 0.034123,0.149856 0.1867252,0.248019 0.334598,0.215233 0.2426532,-0.0538 0.3068335,-0.363553 0.1055409,-0.509369 -0.1561545,-0.113118 -0.3861536,-0.03087 -0.4364961,0.156097 -0.017759,0.06595 -0.017998,0.075 -0.00364,0.138039 z M 3.536002,7.9381592 c 0.018798,0 0.5252574,0.2423999 0.8901769,0.4260529 1.6301365,0.8204008 2.8985829,1.7090269 3.9431481,2.7624209 l 0.1519744,0.153259 -0.031636,0.13405 C 8.3502056,12.004859 8.064876,12.472299 7.6223255,12.834857 7.4463128,12.979055 7.1403091,13.156424 6.8834693,13.26312 l -0.1098275,0.04562 -0.04389,-0.04762 C 6.659834,13.185277 6.5087257,12.992389 6.4062858,12.848229 6.1743157,12.521787 5.9984346,12.223221 5.5368452,11.372317 5.3176417,10.968231 5.2253297,10.809555 5.0324369,10.505277 4.5999096,9.8229927 4.1981699,9.1414066 3.7631654,8.3518448 3.6773059,8.1960043 3.5972288,8.0616083 3.5852157,8.0531875 3.573203,8.0447662 3.5592786,8.0269154 3.5542701,8.0135191 3.53567,7.9637609 3.5294634,7.9381592 3.536002,7.9381592 Z M 3.546376,30.006564 c 0.00762,-0.02105 0.024633,-0.04701 0.037816,-0.05768 0.013183,-0.01067 0.093969,-0.146458 0.1795256,-0.30174 0.4346241,-0.788831 0.8364397,-1.470523 1.2687198,-2.152417 0.1928928,-0.30428 0.2852048,-0.462956 0.5044083,-0.86704 0.4615894,-0.850905 0.6374705,-1.149471 0.8694406,-1.475913 0.1024399,-0.144159 0.2535482,-0.337048 0.3234656,-0.412899 l 0.04389,-0.04762 0.1098275,0.04562 c 0.171828,0.07138 0.3806791,0.181392 0.5291795,0.278746 0.5594097,0.366735 0.9154659,0.885911 1.0770165,1.570432 l 0.031636,0.134049 -0.1519744,0.153259 c -0.8861451,0.893641 -1.9407148,1.672622 -3.2416498,2.39452 -0.3244222,0.180025 -0.9969835,0.521286 -1.3500669,0.685031 -0.1291853,0.05991 -0.2375654,0.108928 -0.2408445,0.108928 -0.0083,0 -0.00637,-0.0111 0.00961,-0.05528 z M 5.9113918,15.21791 c 0.026079,-0.06584 0.078053,-0.12809 0.1069451,-0.12809 0.037327,0 0.081113,0.06116 0.1135812,0.158656 0.046616,0.139978 0.06925,0.186202 0.1197352,0.244533 0.024825,0.02868 0.051892,0.06828 0.060148,0.08799 0.017751,0.04238 0.075332,0.123043 0.1783061,0.249762 0.04116,0.05065 0.093774,0.121701 0.1169191,0.157887 0.032232,0.05039 0.071746,0.08782 0.1688405,0.159928 0.5577956,0.414239 1.0443668,0.63299 1.594493,0.716849 0.1611037,0.02456 0.561336,0.02767 0.7367001,0.0057 0.1378277,-0.01725 0.2121847,-0.04837 0.3320626,-0.138978 0.3421068,-0.258583 0.4887456,-0.815463 0.4501005,-1.709308 -0.00663,-0.153301 -0.027701,-0.462337 -0.046829,-0.686747 -0.039192,-0.459784 -0.038624,-0.5278 0.00695,-0.831343 0.1246974,-0.830623 0.3795238,-1.515562 0.7853728,-2.110964 0.313279,-0.459599 0.775104,-0.893512 1.266143,-1.189618 0.596868,-0.359923 1.315875,-0.6003962 2.130764,-0.7126375 0.335583,-0.046223 0.52661,-0.058846 0.987016,-0.065221 0.570659,-0.0079 0.934243,0.011401 1.45543,0.07727 0.102854,0.012999 0.213742,0.023272 0.246418,0.022829 0.08133,-0.0011 0.22948,-0.028143 0.405278,-0.073968 0.08104,-0.021124 0.236594,-0.06167 0.345683,-0.090102 0.29725,-0.077475 0.380611,-0.091075 0.561025,-0.091525 0.1794,-4.498e-4 0.258662,0.015376 0.3793,0.075725 0.07451,0.037275 0.08074,0.044448 0.148875,0.1715143 0.02027,0.037793 0.0235,0.062378 0.02234,0.1700078 -0.0022,0.2065967 -0.03289,0.3490934 -0.138791,0.6447714 -0.119541,0.333776 -0.145428,0.462215 -0.145268,0.720763 2.23e-4,0.359773 0.0245,0.64534 0.119129,1.40108 0.07437,0.593953 0.0961,0.855562 0.0961,1.156627 0,0.416955 -0.03704,0.695357 -0.140152,1.053474 -0.243331,0.845094 -0.61799,1.511978 -1.146173,2.040159 -0.545941,0.545942 -1.221175,0.911503 -2.083439,1.12794 l -0.22462,0.05638 -0.563083,1.11e-4 c -1.012591,1.93e-4 -1.446066,0.04147 -1.860809,0.177187 -0.244669,0.08006 -0.481368,0.225761 -0.606928,0.37359 -0.05792,0.0682 -0.05873,0.0702 -0.07963,0.198192 -0.02948,0.180581 -0.02948,0.5427 0,0.723281 0.02089,0.127987 0.0217,0.129995 0.07963,0.198192 0.12556,0.147828 0.362259,0.293526 0.606928,0.373589 0.414743,0.135717 0.848218,0.176992 1.860809,0.177187 l 0.563083,1.11e-4 0.22462,0.05638 c 0.862264,0.216437 1.537498,0.581998 2.083439,1.127939 0.528183,0.528174 0.902842,1.195058 1.146173,2.040151 0.103114,0.358117 0.140152,0.636519 0.140152,1.053474 0,0.301065 -0.02174,0.562674 -0.0961,1.156628 -0.09463,0.755739 -0.118906,1.041307 -0.119129,1.401079 -1.58e-4,0.258548 0.02573,0.386988 0.145268,0.720763 0.105897,0.295679 0.13657,0.438176 0.138791,0.644772 0.0012,0.107629 -0.0021,0.132215 -0.02234,0.170008 -0.06814,0.127064 -0.07436,0.134239 -0.148875,0.171513 -0.120638,0.06035 -0.1999,0.07617 -0.3793,0.07572 -0.180414,-4.55e-4 -0.263775,-0.01405 -0.561025,-0.09152 -0.109089,-0.02843 -0.264646,-0.06898 -0.345683,-0.0901 -0.175798,-0.04583 -0.323952,-0.07286 -0.405278,-0.07397 -0.03268,-4.41e-4 -0.143564,0.0098 -0.246418,0.02283 -0.521187,0.06587 -0.884771,0.08517 -1.45543,0.07727 -0.460406,-0.0064 -0.651433,-0.019 -0.987016,-0.06522 -1.24968,-0.172129 -2.232931,-0.628171 -2.958361,-1.372122 -0.659062,-0.675885 -1.058192,-1.53717 -1.2239188,-2.641098 -0.04557,-0.303542 -0.046138,-0.371559 -0.00695,-0.831343 C 9.9203262,22.749582 9.9120352,22.29886 9.8098422,21.89422 9.738971,21.613633 9.6113676,21.398015 9.4391225,21.267822 9.3192446,21.177211 9.2448876,21.14609 9.1070599,21.128844 c -0.1753641,-0.02194 -0.5755964,-0.01883 -0.7367001,0.0057 -0.5501262,0.08386 -1.0366974,0.302611 -1.594493,0.716849 -0.097095,0.07211 -0.1366081,0.109534 -0.1688405,0.159929 -0.023145,0.03619 -0.075759,0.107234 -0.1169191,0.157886 -0.1029737,0.126719 -0.1605551,0.207378 -0.1783061,0.249762 -0.00826,0.01971 -0.035323,0.05931 -0.060148,0.08799 -0.050485,0.05833 -0.073119,0.104555 -0.1197352,0.244532 -0.032468,0.09749 -0.076254,0.158656 -0.1135812,0.158656 -0.030183,0 -0.081411,-0.06347 -0.1079312,-0.133718 -0.019197,-0.05085 -0.023344,-0.08164 -0.019462,-0.144478 0.00674,-0.109134 0.047532,-0.187908 0.2072384,-0.400226 0.07097,-0.09435 0.1495208,-0.206618 0.1745549,-0.249483 0.053342,-0.09133 0.1504615,-0.185493 0.3862102,-0.374442 0.2922515,-0.234234 0.5398745,-0.398889 0.8207717,-0.545765 0.5398402,-0.282269 1.1514275,-0.444531 1.7776636,-0.471637 l 0.1698515,-0.0074 0.2450982,-0.20492 c 0.574926,-0.480682 0.815658,-0.771741 0.971014,-1.174005 0.03424,-0.08866 0.03627,-0.10087 0.02495,-0.150325 -0.0089,-0.03875 -0.0089,-0.06891 0,-0.107654 0.01132,-0.04946 0.0093,-0.06167 -0.02495,-0.150325 -0.155355,-0.402191 -0.396087,-0.69325 -0.9710133,-1.173931 L 9.4272345,17.416918 9.257383,17.409566 C 8.6311469,17.38246 8.0195596,17.220198 7.4797194,16.937928 7.1988222,16.791053 6.9511992,16.626398 6.6589477,16.392163 6.423199,16.203215 6.3260794,16.109054 6.2727375,16.017721 6.2477034,15.974857 6.169153,15.862589 6.0981826,15.768238 5.9342216,15.550263 5.8968128,15.476632 5.8917877,15.361983 c -0.00289,-0.06583 0.00156,-0.09853 0.019604,-0.144077 z m 4.6060582,2.099013 c 0.01679,0.04987 0.03409,0.09431 0.03843,0.09876 0.02037,0.02088 0.187297,0.04447 0.313592,0.04433 0.219793,-2.48e-4 0.326015,-0.03401 0.782036,-0.248567 0.188232,-0.08856 0.309097,-0.132296 0.429829,-0.155519 0.07264,-0.01397 0.0882,-0.01341 0.165199,0.0059 0.213054,0.05356 0.559683,0.110769 0.867039,0.143089 0.226328,0.0238 0.804943,0.02746 1.020047,0.0065 0.92001,-0.08983 1.6964,-0.385472 2.329107,-0.886903 0.153168,-0.121389 0.423353,-0.391122 0.544248,-0.543339 0.488235,-0.614729 0.747148,-1.34666 0.777788,-2.198768 0.01206,-0.335495 -0.01742,-0.615968 -0.121589,-1.156526 -0.08061,-0.418302 -0.118861,-0.65472 -0.141133,-0.872234 -0.02893,-0.282524 -0.01719,-0.346834 0.120542,-0.660613 0.100576,-0.22912 0.134338,-0.345065 0.142619,-0.489773 0.006,-0.105481 0.0044,-0.118361 -0.02412,-0.18579 -0.01769,-0.04187 -0.02796,-0.08299 -0.02435,-0.09741 0.0076,-0.03024 -0.01821,-0.05655 -0.108829,-0.111007 -0.08562,-0.051448 -0.175196,-0.069476 -0.306623,-0.061711 -0.129496,0.00765 -0.216947,0.030478 -0.484539,0.126476 -0.336516,0.120723 -0.333503,0.120202 -0.555359,0.09603 -0.53587,-0.0584 -1.276493,-0.08243 -1.745413,-0.05663 -1.193487,0.06565 -2.050709,0.326833 -2.612454,0.795982 -0.223508,0.186665 -0.443122,0.455749 -0.638897,0.782812 -0.07237,0.120896 -0.222354,0.429896 -0.279431,0.575675 -0.408674,1.043785 -0.499461,2.358306 -0.248791,3.6023 l 0.03761,0.186643 -0.0319,0.09745 c -0.01755,0.0536 -0.06377,0.173957 -0.102715,0.267461 -0.146745,0.352295 -0.18296,0.491703 -0.176655,0.680031 0.0033,0.09752 0.01082,0.14442 0.03471,0.215344 z m 0.517262,-3.949848 c 0.04076,-0.429569 0.156872,-0.804751 0.412139,-1.331728 0.108387,-0.223754 0.151646,-0.278983 0.452753,-0.578027 0.51536,-0.511829 1.029467,-0.800013 1.681478,-0.942556 0.288227,-0.06301 0.828134,-0.04286 1.283575,0.04791 0.308227,0.06143 0.546604,0.141609 0.821705,0.276387 0.450289,0.220606 0.7925,0.522844 1.074603,0.949081 0.176894,0.267276 0.291664,0.510815 0.410263,0.870571 0.129359,0.392397 0.15915,0.568799 0.156956,0.929376 -0.0013,0.214147 -0.0067,0.295071 -0.03014,0.453354 -0.09915,0.66909 -0.309058,1.189956 -0.648764,1.609878 -0.10985,0.135789 -0.323639,0.341895 -0.464681,0.44798 -0.463097,0.348321 -1.070872,0.576909 -1.807297,0.679737 -0.197646,0.0276 -0.248503,0.02586 -0.529911,-0.01814 -0.649204,-0.101497 -1.182977,-0.310677 -1.610537,-0.631153 -0.138514,-0.103821 -0.37522,-0.333465 -0.487802,-0.473247 -0.360826,-0.447999 -0.597581,-1.036552 -0.704396,-1.751062 -0.02314,-0.154771 -0.02692,-0.359477 -0.0099,-0.538358 z m 2.061228,0.396191 c 0.02896,0.11527 0.106511,0.283076 0.174924,0.378494 0.05828,0.08129 0.204281,0.225063 0.282714,0.278405 0.08801,0.05986 0.256158,0.134375 0.365384,0.161922 0.145113,0.0366 0.39755,0.0366 0.542662,0 0.109226,-0.02755 0.27737,-0.102062 0.365385,-0.161922 0.07843,-0.05334 0.224434,-0.197119 0.282714,-0.278405 0.06941,-0.09681 0.146227,-0.264012 0.176578,-0.384348 0.0366,-0.145113 0.0366,-0.39755 0,-0.542664 -0.03035,-0.120336 -0.107165,-0.287534 -0.176578,-0.384349 -0.05828,-0.08128 -0.204282,-0.225061 -0.282714,-0.278404 -0.08802,-0.05986 -0.256159,-0.134374 -0.365385,-0.161922 -0.08278,-0.02088 -0.132434,-0.02555 -0.271331,-0.02555 -0.203899,0 -0.314082,0.02336 -0.479325,0.101641 -0.136582,0.0647 -0.224713,0.128312 -0.331817,0.239505 -0.158535,0.164589 -0.245128,0.327558 -0.294227,0.553739 -0.02934,0.135158 -0.02436,0.363057 0.01102,0.503863 z m -2.60045,7.330114 c 0.02169,0.114341 0.07426,0.269917 0.163894,0.485071 0.03896,0.09351 0.08518,0.213862 0.102729,0.267461 l 0.0319,0.09745 -0.03761,0.186644 c -0.25067,1.243993 -0.159883,2.558514 0.248791,3.602299 0.05708,0.14578 0.207065,0.454779 0.279431,0.575675 0.195775,0.327063 0.415389,0.596147 0.638897,0.782813 0.561745,0.469148 1.418967,0.730332 2.612454,0.795981 0.46892,0.02579 1.209543,0.0018 1.745413,-0.05663 0.221856,-0.02418 0.218843,-0.0247 0.555359,0.09603 0.267592,0.096 0.355043,0.118824 0.484539,0.126476 0.131427,0.0078 0.221007,-0.01026 0.306623,-0.06171 0.09062,-0.05445 0.116418,-0.08077 0.108829,-0.111007 -0.0036,-0.01442 0.0067,-0.05554 0.02435,-0.09741 0.02849,-0.06743 0.03016,-0.08031 0.02412,-0.18579 -0.0083,-0.144708 -0.04204,-0.260652 -0.142619,-0.489773 -0.137737,-0.313779 -0.149472,-0.37809 -0.120542,-0.660613 0.02227,-0.217513 0.06053,-0.453932 0.141133,-0.872234 0.104166,-0.540558 0.133653,-0.82103 0.121589,-1.156526 -0.03064,-0.852107 -0.289553,-1.584038 -0.777788,-2.198767 -0.120895,-0.152217 -0.39108,-0.42195 -0.544248,-0.543339 -0.632707,-0.501432 -1.409097,-0.797074 -2.329107,-0.886904 -0.215104,-0.021 -0.793719,-0.01734 -1.020047,0.0065 -0.307356,0.03232 -0.653985,0.08952 -0.867039,0.143089 -0.077,0.01936 -0.09255,0.01992 -0.165199,0.0059 -0.117859,-0.02267 -0.240003,-0.06641 -0.418495,-0.149875 -0.43461,-0.20322 -0.524093,-0.235412 -0.699866,-0.251784 -0.106325,-0.0099 -0.26302,8.72e-4 -0.35279,0.02426 -0.05161,0.01345 -0.05676,0.01817 -0.07762,0.07107 -0.05404,0.137073 -0.06709,0.297418 -0.03708,0.455639 z m 0.54923,2.994939 c 0.110091,-0.716182 0.345449,-1.299229 0.704332,-1.744815 0.112582,-0.139782 0.349288,-0.369425 0.487802,-0.473247 0.42756,-0.320476 0.961333,-0.529656 1.610537,-0.631153 0.281408,-0.04399 0.332265,-0.04574 0.529911,-0.01814 0.885159,0.123595 1.564623,0.419599 2.055083,0.895283 0.475278,0.460958 0.746489,1.038154 0.865659,1.842311 0.02346,0.158283 0.02884,0.239207 0.03014,0.453354 0.0022,0.360577 -0.0276,0.536979 -0.156956,0.929376 -0.118599,0.359756 -0.233369,0.603296 -0.410263,0.870572 -0.282103,0.426236 -0.624314,0.728474 -1.074603,0.949081 -0.275101,0.134777 -0.513478,0.214956 -0.821705,0.276386 -0.455441,0.09077 -0.995348,0.11092 -1.283575,0.04791 C 12.929071,27.342693 12.414964,27.05451 11.899604,26.54268 11.598497,26.243637 11.555238,26.188407 11.446851,25.964653 11.326483,25.716166 11.259117,25.557597 11.197434,25.377572 11.046146,24.93603 10.988814,24.452016 11.04472,24.088319 Z m 2.05122,0.702786 c 0.02896,0.115269 0.106511,0.283076 0.174924,0.378494 0.05828,0.08129 0.204281,0.225063 0.282714,0.278405 0.08801,0.05986 0.256158,0.134375 0.365384,0.161922 0.145113,0.0366 0.39755,0.0366 0.542662,0 0.109226,-0.02755 0.27737,-0.102062 0.365385,-0.161922 0.07843,-0.05334 0.224434,-0.197119 0.282714,-0.278405 0.06941,-0.09681 0.146227,-0.264011 0.176578,-0.384349 0.0366,-0.145112 0.0366,-0.397549 0,-0.542662 -0.03035,-0.120337 -0.107165,-0.287535 -0.176578,-0.384349 -0.05828,-0.08129 -0.204282,-0.225062 -0.282714,-0.278405 -0.08802,-0.05986 -0.256159,-0.134374 -0.365385,-0.161922 -0.145112,-0.0366 -0.397549,-0.0366 -0.542662,0 -0.120337,0.03035 -0.287535,0.107165 -0.384349,0.176578 -0.07991,0.05729 -0.224975,0.204071 -0.275807,0.279066 -0.08065,0.118985 -0.141161,0.262952 -0.173882,0.413686 -0.02934,0.135158 -0.02436,0.363056 0.01102,0.503863 z m -1.890346,-6.303993 c 0.0473,0.09948 0.177973,0.171054 0.289375,0.158497 0.107732,-0.01214 0.218053,-0.116142 0.241133,-0.227316 0.0415,-0.199899 -0.137891,-0.379933 -0.33502,-0.336225 -0.183913,0.04078 -0.276989,0.23363 -0.195488,0.405044 z m -0.0236,1.215587 c 0.03412,0.149856 0.186726,0.248018 0.334599,0.215233 0.25297,-0.05609 0.307393,-0.381961 0.08712,-0.521654 -0.06699,-0.04248 -0.117728,-0.05174 -0.194929,-0.03554 -0.1106,0.0232 -0.195334,0.100633 -0.223146,0.203923 -0.01776,0.06595 -0.018,0.075 -0.0036,0.13804 z m -4.83438,-5.189378 c 0.047291,-0.09178 0.079666,-0.171968 0.093805,-0.232345 l 0.02159,-0.0922 0.05104,0.107672 c 0.3550157,0.748929 0.4581821,0.938326 0.6594409,1.210616 0.1110479,0.150242 0.308469,0.347309 0.4432193,0.442427 0.122197,0.08626 0.3348362,0.192483 0.4782489,0.238916 0.133412,0.04319 0.3075296,0.0767 0.4807754,0.0925 0.1350985,0.01233 0.1378251,0.01211 0.2235446,-0.01826 0.1756767,-0.06224 0.2911188,-0.135258 0.4003316,-0.253217 0.120155,-0.12978 0.1399755,-0.177793 0.1644091,-0.398257 0.017039,-0.153742 0.020663,-0.27673 0.020371,-0.691365 -2.142e-4,-0.318027 -0.00569,-0.560885 -0.014791,-0.657364 -0.024352,-0.258105 -0.028307,-0.407307 -0.014122,-0.532691 0.1885976,-1.667048 0.8738762,-2.890615 2.2712122,-4.0552524 0.286191,-0.2385309 0.644058,-0.5083082 1.018887,-0.768084 0.178549,-0.1237442 0.182586,-0.1258085 0.296177,-0.1514188 0.458393,-0.1033515 0.896674,-0.3277588 1.254484,-0.642317 0.117465,-0.1032662 0.126726,-0.1213857 0.174977,-0.3423485 0.03533,-0.1617973 0.05454,-0.2135349 0.0824,-0.2218752 0.103779,-0.03107 0.592413,-0.09746 0.8984,-0.1220642 0.263682,-0.021202 0.962658,-0.017842 1.246724,0.00599 0.452987,0.03801 0.84303,0.098226 1.190055,0.1837249 0.229297,0.056493 0.540497,0.155664 0.565441,0.1801909 0.0087,0.00852 0.0181,0.040093 0.02097,0.070168 0.0057,0.059249 -0.0074,0.1043594 -0.08242,0.2841635 -0.0428,0.1026211 -0.04325,0.1051716 -0.02167,0.1221495 0.0879,0.069156 0.38742,0.2576288 0.639537,0.4024285 0.466378,0.2678573 0.619125,0.3719092 0.797785,0.5434539 0.608303,0.5840794 1.015347,1.6769449 1.106076,2.9696819 0.01471,0.209532 0.01492,0.751392 3.86e-4,0.957711 -0.05514,0.782194 -0.228887,1.476505 -0.505869,2.021455 -0.13741,0.270349 -0.204474,0.360477 -0.442495,0.594676 -0.272913,0.268529 -0.360314,0.386009 -0.416892,0.560362 -0.01936,0.05967 -0.01936,0.05969 0.0097,0.109311 0.016,0.02729 0.04517,0.06316 0.06482,0.0797 0.137628,0.115806 0.325099,0.139557 0.763744,0.09676 0.143373,-0.01399 0.334632,-0.0253 0.42502,-0.02513 0.143453,2.57e-4 0.177305,0.0041 0.266345,0.03009 0.130118,0.038 0.241468,0.09233 0.336169,0.164021 0.09749,0.0738 0.338195,0.305352 0.338195,0.325332 0,0.02407 -0.05006,0.03111 -0.168724,0.02371 -0.117239,-0.0073 -0.227945,-0.02813 -0.525055,-0.09872 -0.321233,-0.07632 -0.451925,-0.09426 -0.683284,-0.09378 -0.320199,6.69e-4 -0.47968,0.03561 -0.7367,0.161409 -0.0748,0.03661 -0.20231,0.108661 -0.283347,0.160107 -0.261007,0.165696 -0.304695,0.19189 -0.32005,0.19189 -0.03084,0 0.0082,-0.196725 0.110355,-0.556225 0.09569,-0.336732 0.116236,-0.442636 0.117448,-0.605495 0.0015,-0.200217 -0.04144,-0.323064 -0.149655,-0.428258 l -0.05278,-0.0513 -0.07595,0.0471 c -0.244951,0.151921 -0.390033,0.304559 -0.821431,0.864216 -0.146838,0.190493 -0.278343,0.332351 -0.470384,0.507415 -0.218678,0.199347 -0.321073,0.280959 -0.519322,0.41392 -0.280197,0.187921 -0.581262,0.341654 -0.914745,0.467097 -0.123041,0.04628 -0.178013,0.06081 -0.258309,0.06826 -0.0561,0.0052 -0.22186,0.02582 -0.36835,0.04582 -0.23609,0.03222 -0.297454,0.03644 -0.540198,0.03709 -0.249117,6.69e-4 -0.303532,-0.0037 -0.284456,-0.02276 0.0036,-0.0036 0.08945,-0.0088 0.19084,-0.01163 0.193956,-0.0054 0.250273,-0.01568 0.531799,-0.097 1.112041,-0.32124 1.989363,-0.927353 2.564035,-1.771406 0.360071,-0.528858 0.609875,-1.117735 0.77231,-1.820617 0.106442,-0.46059 0.126054,-0.663054 0.108554,-1.120698 -0.01554,-0.406418 -0.04007,-0.648471 -0.135553,-1.337769 -0.113054,-0.816134 -0.115906,-0.865208 -0.06706,-1.153797 0.02732,-0.161386 0.04719,-0.238793 0.14608,-0.568948 C 18.970546,9.8486632 18.992897,9.6651503 18.926265,9.4773588 18.876855,9.3381099 18.799984,9.2219319 18.664386,9.081579 l -0.117374,-0.1214894 -0.109937,-0.02078 c -0.151634,-0.028661 -0.530902,-0.028751 -0.716298,-1.713e-4 -0.170796,0.02633 -0.421127,0.082948 -0.675883,0.1528663 l -0.205528,0.056408 -0.168489,-0.020525 C 16.464121,9.1027076 16.181692,9.0766556 15.918706,9.0585122 15.65853,9.0405623 14.888358,9.0404248 14.643647,9.058298 13.615023,9.13337 12.779077,9.3457017 12.048195,9.7175461 11.132,10.183671 10.464065,10.85213 10.009661,11.75768 c -0.2516311,0.501457 -0.3986695,0.95874 -0.5247895,1.632075 -0.029062,0.155157 -0.026307,0.648948 0.0068,1.218389 0.030287,0.520988 0.028763,1.068983 -0.00353,1.269391 -0.024102,0.149562 -0.059609,0.301401 -0.09007,0.385164 -0.024607,0.06766 -0.024841,0.06789 -0.1039991,0.09986 -0.2208273,0.0892 -0.4633502,0.13451 -0.7197024,0.134466 C 7.9699548,16.496896 7.4101532,16.249617 6.9299012,15.770545 6.7119481,15.553129 6.5768393,15.373534 6.4495717,15.132061 6.363839,14.969396 6.2724145,14.731819 6.2744977,14.677108 c 4.969e-4,-0.013 0.033395,-0.08669 0.073112,-0.163775 z m 12.562342,-2.479842 c 0.08837,0.185166 0.256005,0.303161 0.60429,0.425354 l 0.150229,0.05271 0.06633,0.111203 c 0.07462,0.125098 0.179412,0.243902 0.253388,0.287255 0.123325,0.07227 0.297503,0.09282 0.414808,0.04893 0.06868,-0.0257 0.155417,-0.0844 0.284508,-0.192544 l 0.08794,-0.07367 -0.0054,-0.430687 c -0.0047,-0.376502 -0.0083,-0.444232 -0.02841,-0.538358 -0.01265,-0.05922 -0.03049,-0.128436 -0.03964,-0.153815 -0.05151,-0.142896 -0.142261,-0.259123 -0.246725,-0.31598 l -0.0579,-0.03151 -0.109403,0.01795 c -0.06017,0.0099 -0.231733,0.03119 -0.381249,0.04737 -0.465475,0.05036 -0.613788,0.08515 -0.777327,0.1823 -0.07049,0.04188 -0.167064,0.138252 -0.198075,0.197672 -0.07042,0.13494 -0.07559,0.243823 -0.01737,0.365825 z m 0.729541,-0.206846 c 0.05741,-0.01285 0.193312,-0.03891 0.301996,-0.05791 0.108684,-0.019 0.218339,-0.03921 0.243678,-0.0449 0.02534,-0.0057 0.04943,-0.0068 0.05354,-0.0024 0.0041,0.0044 0.01559,0.03564 0.0255,0.06949 0.02278,0.07778 0.02331,0.251292 0.0011,0.357792 -0.02059,0.09864 -0.06261,0.232344 -0.07302,0.232344 -0.0043,0 -0.02277,-0.01576 -0.04108,-0.03501 -0.04517,-0.04751 -0.102567,-0.07952 -0.241056,-0.134446 -0.156897,-0.06222 -0.220946,-0.09571 -0.272973,-0.142715 -0.04341,-0.03922 -0.08263,-0.114423 -0.09536,-0.182855 l -0.0067,-0.03601 0.104389,-0.02336 z m -0.594636,-0.829057 c 0.0075,0.04907 0.009,0.05062 0.06388,0.0646 0.167535,0.04269 0.4476,0.04612 0.691813,0.0085 0.20687,-0.03189 0.531933,-0.124764 0.581938,-0.166265 0.02434,-0.0202 0.01071,-0.270924 -0.02077,-0.382104 -0.05219,-0.184316 -0.153358,-0.347705 -0.301769,-0.487356 -0.137433,-0.1293219 -0.320332,-0.2310203 -0.518517,-0.2883125 -0.147253,-0.042568 -0.156071,-0.0411 -0.216912,0.036134 -0.126582,0.16069 -0.231296,0.4346425 -0.271577,0.7104995 -0.01592,0.109041 -0.02091,0.420173 -0.0081,0.504333 z m 0.517852,-0.5093 c 0.0088,-0.01558 0.01628,-0.04364 0.01658,-0.06234 8.56e-4,-0.05232 0.01257,-0.085 0.03047,-0.085 0.03473,0 0.0846,0.03694 0.128674,0.09531 0.02532,0.03354 0.0618,0.06861 0.08106,0.07794 l 0.03502,0.01696 -0.0301,0.01972 c -0.04954,0.03246 -0.205854,0.02047 -0.258824,-0.01986 -0.01672,-0.01273 -0.01705,-0.01769 -0.0029,-0.04273 z m -0.34611,3.6325 c 0.0152,0.232168 0.04015,0.464989 0.06882,0.642117 0.02897,0.17901 0.08792,0.424545 0.105147,0.437944 0.04274,0.03325 0.345236,0.07424 0.377358,0.05113 0.02449,-0.01762 0.115462,-0.169092 0.18504,-0.308099 0.08591,-0.171636 0.14022,-0.303381 0.280102,-0.679468 l 0.108222,-0.290968 -0.006,-0.09657 c -0.02349,-0.381119 -0.22886,-0.67503 -0.628333,-0.899238 -0.128345,-0.07203 -0.473794,-0.23391 -0.499174,-0.23391 -0.01505,0 -0.01623,0.0701 -0.01008,0.59786 0.0038,0.328824 0.01232,0.679465 0.01885,0.779203 z m 0.40846,-0.674267 c 0.03973,0.02126 0.126002,0.131168 0.164517,0.209579 0.05392,0.109776 0.07411,0.194535 0.081,0.340016 0.0071,0.149131 -0.02119,0.309123 -0.08006,0.453354 -0.04634,0.113529 -0.107631,0.214018 -0.110613,0.181341 -0.0011,-0.01247 -0.0028,-0.208826 -0.0036,-0.436353 -0.0016,-0.42203 -0.01281,-0.563131 -0.05629,-0.707628 -0.01457,-0.04843 -0.01429,-0.05067 0.0051,-0.04031 z M 6.3067768,23.199192 c 0.095965,-0.272478 0.2216481,-0.500003 0.4069465,-0.7367 0.1476256,-0.188574 0.4125101,-0.429711 0.6393278,-0.582011 0.5254724,-0.352833 1.1786378,-0.4677 1.7474034,-0.307302 0.062852,0.01772 0.1499787,0.04665 0.1936142,0.06427 0.079158,0.03197 0.079392,0.0322 0.1039992,0.09986 0.030461,0.08376 0.065969,0.235602 0.09007,0.385163 0.032293,0.200409 0.033818,0.748404 0.00353,1.269392 -0.033104,0.569441 -0.035859,1.063232 -0.0068,1.218389 0.12612,0.673335 0.2731583,1.130617 0.5247891,1.632075 0.454405,0.905549 1.12234,1.574009 2.038534,2.040134 0.730882,0.371844 1.566828,0.584175 2.595452,0.659248 0.244711,0.01786 1.014884,0.01772 1.275059,-2.14e-4 0.262986,-0.01814 0.545416,-0.0442 0.752182,-0.06938 l 0.168489,-0.02052 0.205529,0.05641 c 0.254755,0.06992 0.505086,0.126536 0.675883,0.152867 0.185395,0.02858 0.564663,0.02849 0.716297,-1.71e-4 l 0.109937,-0.02078 0.117374,-0.121488 c 0.135599,-0.140354 0.212471,-0.256532 0.261879,-0.395781 0.06663,-0.187791 0.04428,-0.371303 -0.106562,-0.874904 -0.09889,-0.330155 -0.118765,-0.407562 -0.14608,-0.568948 -0.04884,-0.288589 -0.04599,-0.337664 0.06706,-1.153798 0.09548,-0.689298 0.120011,-0.93135 0.135552,-1.337769 0.0175,-0.457643 -0.0021,-0.660108 -0.108553,-1.120697 -0.162436,-0.702882 -0.412239,-1.291759 -0.772311,-1.820617 -0.268771,-0.39476 -0.633789,-0.765692 -1.035623,-1.052402 -0.424985,-0.303229 -0.959397,-0.55463 -1.528412,-0.719004 -0.281526,-0.08132 -0.337843,-0.0916 -0.531799,-0.097 -0.101394,-0.0028 -0.187276,-0.0081 -0.19085,-0.01163 -0.01908,-0.01908 0.03534,-0.02343 0.284456,-0.02276 0.242744,6.46e-4 0.304108,0.0049 0.540198,0.03709 0.14649,0.02 0.312248,0.04061 0.36835,0.04582 0.231208,0.02145 0.780769,0.272259 1.173054,0.535355 0.198249,0.132961 0.300644,0.214574 0.519323,0.413921 0.192041,0.175063 0.323546,0.316921 0.470384,0.507415 0.431398,0.559657 0.57648,0.712294 0.82143,0.864216 l 0.07595,0.0471 0.05278,-0.0513 c 0.108217,-0.105194 0.151146,-0.22804 0.149656,-0.428257 -0.0012,-0.16286 -0.02175,-0.268763 -0.117448,-0.605495 -0.102164,-0.3595 -0.141194,-0.556225 -0.110356,-0.556225 0.01535,0 0.05904,0.02619 0.320051,0.19189 0.08104,0.05144 0.208542,0.123494 0.283346,0.160107 0.25702,0.125801 0.416501,0.160743 0.736701,0.161408 0.231359,4.76e-4 0.362051,-0.01746 0.683283,-0.09378 0.29711,-0.07059 0.407816,-0.09141 0.525055,-0.09872 0.11866,-0.0074 0.168724,-3.64e-4 0.168724,0.02371 0,0.01998 -0.240706,0.251531 -0.338194,0.325332 -0.0947,0.07169 -0.206052,0.12602 -0.33617,0.164021 -0.08904,0.026 -0.122892,0.02983 -0.266345,0.0301 -0.09039,1.71e-4 -0.281646,-0.01114 -0.42502,-0.02513 -0.438645,-0.0428 -0.626116,-0.01905 -0.763744,0.09676 -0.01966,0.01654 -0.04882,0.0524 -0.06482,0.0797 -0.02908,0.04962 -0.02908,0.04963 -0.0097,0.109311 0.05658,0.174353 0.143978,0.291833 0.416892,0.560362 0.23802,0.234198 0.305084,0.324326 0.442495,0.594676 0.276981,0.54495 0.450732,1.239261 0.505868,2.021455 0.01454,0.20632 0.01433,0.748178 -3.86e-4,0.957711 -0.09073,1.292737 -0.497773,2.385602 -1.106076,2.969681 -0.17866,0.171546 -0.331407,0.275597 -0.797785,0.543455 -0.252117,0.1448 -0.551637,0.333273 -0.639537,0.402429 -0.02158,0.01698 -0.02113,0.01953 0.02167,0.122148 0.07499,0.179805 0.08807,0.224915 0.08242,0.284165 -0.0029,0.03007 -0.01231,0.06165 -0.02097,0.07017 -0.02494,0.02453 -0.336144,0.123697 -0.565442,0.18019 -0.347024,0.0855 -0.737067,0.145714 -1.190054,0.183725 -0.284066,0.02384 -0.983042,0.0272 -1.246724,0.006 -0.305987,-0.0246 -0.794621,-0.09099 -0.898401,-0.122063 -0.02786,-0.0083 -0.04707,-0.06008 -0.0824,-0.221876 -0.04825,-0.220963 -0.05751,-0.239082 -0.174977,-0.342348 -0.35781,-0.314558 -0.796091,-0.538966 -1.254484,-0.642317 -0.113591,-0.02561 -0.117629,-0.02768 -0.296178,-0.151419 -0.681779,-0.472508 -1.189342,-0.884784 -1.611755,-1.309171 -0.994695,-0.999342 -1.5177321,-2.094492 -1.6783428,-3.514165 -0.014186,-0.125384 -0.01023,-0.274586 0.014122,-0.532691 0.0091,-0.09648 0.014568,-0.339337 0.014791,-0.657364 2.998e-4,-0.414635 -0.00333,-0.537623 -0.020371,-0.691365 C 9.3395676,22.168371 9.3197471,22.120358 9.1995921,21.990578 9.0903793,21.872619 8.9749373,21.799599 8.79926,21.737361 8.713541,21.706992 8.710814,21.70677 8.5757159,21.719097 c -0.2860427,0.0261 -0.4941721,0.08177 -0.7210588,0.192859 -0.3924018,0.192127 -0.692291,0.518064 -0.9910515,1.07713 -0.070569,0.132056 -0.168661,0.332569 -0.3495266,0.714476 L 6.463088,23.811234 6.441831,23.720564 C 6.428401,23.663274 6.393513,23.576237 6.34708,23.484176 6.306658,23.404026 6.273865,23.327527 6.274208,23.314168 c 3.427e-4,-0.01336 0.014994,-0.06509 0.032556,-0.114961 z m 12.5769822,3.021249 c 0.06095,0.205593 0.216729,0.336133 0.491772,0.412106 0.100128,0.02766 0.237099,0.04838 0.527189,0.07977 0.149516,0.01618 0.321079,0.03749 0.381249,0.04737 l 0.109403,0.01796 0.0579,-0.03151 c 0.104464,-0.05686 0.195217,-0.173083 0.246725,-0.315981 0.0091,-0.02538 0.02698,-0.09459 0.03964,-0.153814 0.02011,-0.09413 0.02369,-0.161856 0.02841,-0.538358 l 0.0054,-0.430686 -0.08794,-0.07367 c -0.129091,-0.108149 -0.215825,-0.166847 -0.284508,-0.192544 -0.117305,-0.04389 -0.291483,-0.02335 -0.414808,0.04893 -0.07398,0.04335 -0.178773,0.162157 -0.253388,0.287254 l -0.06633,0.111204 -0.150229,0.05271 c -0.377901,0.132582 -0.549465,0.263234 -0.626396,0.47702 -0.02661,0.07396 -0.0276,0.12293 -0.0041,0.202253 z m 0.662778,-0.128458 c 0.03339,-0.141735 0.10381,-0.200525 0.363594,-0.303555 0.138489,-0.05493 0.195889,-0.08694 0.241056,-0.134445 0.01831,-0.01926 0.0368,-0.03501 0.04108,-0.03501 0.01042,0 0.05244,0.133704 0.07302,0.232344 0.02223,0.1065 0.0217,0.280011 -0.0011,0.357792 -0.0099,0.03386 -0.02139,0.06513 -0.0255,0.06949 -0.0041,0.0044 -0.0282,0.0033 -0.05354,-0.0024 -0.02534,-0.0057 -0.134994,-0.0259 -0.243678,-0.0449 -0.238844,-0.04176 -0.407689,-0.07878 -0.406145,-0.08905 6.27e-4,-0.0042 0.0057,-0.02678 0.01119,-0.05025 z m -0.494137,1.40525 c 0.04054,0.28513 0.142898,0.555974 0.272125,0.720022 0.06084,0.07723 0.06966,0.0787 0.216912,0.03613 0.198185,-0.05729 0.381084,-0.158991 0.518517,-0.288313 0.148411,-0.139651 0.24958,-0.30304 0.301769,-0.487355 0.03148,-0.111181 0.04511,-0.361904 0.02077,-0.382104 -0.05,-0.0415 -0.375068,-0.134374 -0.581938,-0.166265 -0.244135,-0.03764 -0.523974,-0.03423 -0.691813,0.0084 -0.05346,0.01359 -0.05656,0.01648 -0.06311,0.05894 -0.01356,0.08785 -0.0095,0.385834 0.0068,0.500513 z m 0.525785,-0.03581 c 0.07468,-0.03862 0.213758,-0.04173 0.257115,-0.0057 0.01477,0.01225 0.01246,0.01645 -0.01686,0.03065 -0.01868,0.009 -0.05468,0.04389 -0.08001,0.07743 -0.04407,0.05837 -0.09394,0.09531 -0.128674,0.09531 -0.01776,0 -0.02982,-0.03319 -0.03007,-0.08273 -9e-5,-0.01745 -0.0079,-0.04662 -0.01727,-0.06482 -0.01664,-0.03218 -0.01621,-0.03356 0.01576,-0.05009 z m -0.36865,-2.205134 c 0.02402,0 0.373459,-0.16431 0.497468,-0.233911 0.399473,-0.224209 0.60484,-0.518118 0.628333,-0.899238 l 0.006,-0.09657 -0.108222,-0.290969 c -0.139882,-0.376087 -0.194192,-0.507831 -0.280102,-0.679468 -0.06958,-0.139006 -0.160552,-0.290482 -0.18504,-0.308099 -0.03212,-0.02311 -0.334614,0.01788 -0.377358,0.05113 -0.01737,0.01351 -0.07641,0.259971 -0.105325,0.439698 -0.06449,0.400817 -0.08454,0.753736 -0.0887,1.561238 -0.0019,0.377238 3.05e-4,0.456188 0.01299,0.456188 z m 0.410597,-0.747006 c 0.04311,-0.13737 0.05457,-0.281029 0.05616,-0.703728 8.53e-4,-0.227527 0.0025,-0.423886 0.0036,-0.436353 0.003,-0.03268 0.06428,0.06781 0.110612,0.181342 0.05887,0.144231 0.08712,0.304223 0.08006,0.453354 -0.0069,0.145481 -0.02708,0.230239 -0.081,0.340015 -0.03899,0.07938 -0.12491,0.188382 -0.165696,0.21021 -0.01192,0.0064 -0.02117,0.01014 -0.02055,0.0084 6.16e-4,-0.0018 0.0082,-0.02572 0.0168,-0.05321 z M 6.6864903,13.449804 c 0.076966,-0.02608 0.2100378,-0.07848 0.2957148,-0.116429 0.986645,-0.43708 1.5471175,-1.174178 1.5886086,-2.089238 l 0.0071,-0.156514 0.046398,-0.03209 c 0.05148,-0.0356 0.184299,-0.170245 0.2157822,-0.218744 0.01735,-0.02673 0.027838,-0.03117 0.073629,-0.03117 0.097615,0 0.2992626,-0.02375 0.4400404,-0.05182 0.8193257,-0.163387 1.4671017,-0.729699 1.8087477,-1.5812775 0.03399,-0.084716 0.07072,-0.1858359 0.08163,-0.224711 0.01525,-0.054358 0.02401,-0.069464 0.03793,-0.065409 0.01,0.0029 0.07581,0.02121 0.146354,0.040689 0.142225,0.039273 0.199041,0.06461 0.237629,0.1059679 0.03118,0.033416 0.0289,0.041315 -0.05467,0.1895623 -0.161169,0.2859014 -0.37991,0.5201182 -0.889382,0.9523023 -0.40523,0.343756 -0.576802,0.513955 -0.7520641,0.74605 -0.4811262,0.637141 -0.7467217,1.316992 -0.9328203,2.387761 -0.037234,0.214234 -0.037423,0.21721 -0.036733,0.578026 3.855e-4,0.208889 0.00861,0.480432 0.019371,0.640363 0.010273,0.152724 0.022141,0.372879 0.026373,0.489236 l 0.00769,0.211555 -0.087658,0.179463 c -0.1167795,0.239082 -0.1321733,0.260814 -0.1915761,0.270474 -0.025964,0.0042 -0.074502,0.02312 -0.1078655,0.042 -0.05417,0.03065 -0.067507,0.03359 -0.1246721,0.02749 C 8.2626779,15.713533 7.785909,15.50383 7.5373213,15.301423 7.1377115,14.976049 6.8656103,14.552875 6.672493,13.956435 6.633126,13.83485 6.573625,13.620735 6.5527836,13.525654 c -0.006,-0.02737 -0.00103,-0.03019 0.1337067,-0.07585 z M 6.5846998,24.343661 c 0.1968317,-0.759453 0.4929342,-1.270794 0.9526215,-1.645085 0.2485877,-0.202407 0.7253566,-0.412109 1.0047225,-0.441917 0.057165,-0.0061 0.070502,-0.0032 0.1246721,0.02749 0.033364,0.01888 0.081902,0.03777 0.1078655,0.042 0.059403,0.0097 0.074797,0.03139 0.1915761,0.270475 l 0.087658,0.179462 -0.00769,0.211556 c -0.00423,0.116356 -0.0161,0.336512 -0.026373,0.489236 -0.010758,0.15993 -0.018972,0.431474 -0.019371,0.640362 -6.897e-4,0.360816 -4.969e-4,0.363792 0.036733,0.578027 0.1860986,1.070768 0.4516941,1.75062 0.9328203,2.38776 0.1752622,0.232095 0.3468342,0.402294 0.7520642,0.74605 0.509472,0.432185 0.728213,0.666401 0.889382,0.952303 0.08357,0.148247 0.08585,0.156146 0.05467,0.189562 -0.03859,0.04136 -0.0954,0.06669 -0.237629,0.105968 -0.07054,0.01948 -0.136401,0.03779 -0.146354,0.04069 -0.01392,0.0041 -0.02268,-0.01105 -0.03793,-0.06541 -0.01091,-0.03888 -0.04764,-0.139995 -0.08163,-0.224712 -0.341646,-0.851578 -0.989422,-1.417889 -1.8087478,-1.581277 -0.1407778,-0.02807 -0.3424252,-0.05182 -0.4400404,-0.05182 -0.045791,0 -0.056279,-0.0044 -0.073629,-0.03117 -0.031483,-0.0485 -0.1643024,-0.183142 -0.2157822,-0.218743 l -0.046398,-0.03209 -0.0071,-0.156514 C 8.5422172,26.125176 8.2606706,25.563258 7.7648677,25.147338 7.4706817,24.900549 7.0761356,24.682129 6.6860367,24.5501 6.6088217,24.52397 6.5458256,24.50003 6.5460466,24.49692 c 2.142e-4,-0.0031 0.017614,-0.07208 0.038653,-0.153258 z M 7.0854542,4.8336757 c 0.017884,0.01613 0.2441743,0.2079662 0.5028697,0.4263035 1.6575849,1.398991 2.5037271,2.2439598 3.2493781,3.2448728 0.240877,0.3233363 0.323569,0.4491213 0.314774,0.4788105 -0.01412,0.04767 -0.194677,0.3884227 -0.278008,0.5246666 -0.38525,0.6298699 -0.8214,0.9754589 -1.4237963,1.1281639 -0.1251451,0.03172 -0.3248917,0.06288 -0.4450484,0.06943 l -0.061768,0.0034 -0.038313,-0.124672 C 8.6651994,9.8025241 8.5163851,9.3410813 8.0758234,8.0118279 7.5202857,6.3356716 7.2930053,5.6233939 7.0595848,4.827015 c -0.00585,-0.019947 -0.00274,-0.019148 0.025869,0.00666 z m 0.050776,28.0786283 c 0.2419858,-0.801002 0.4398082,-1.416695 0.9395256,-2.924134 0.4400639,-1.327486 0.58911,-1.789609 0.8297866,-2.572785 l 0.038313,-0.124672 0.061768,0.0034 c 0.1201567,0.0065 0.3199033,0.03771 0.4450484,0.06943 0.6023962,0.152706 1.0385462,0.498295 1.4237962,1.128165 0.08333,0.136243 0.263888,0.476997 0.278008,0.524667 0.0088,0.02969 -0.0739,0.155473 -0.314774,0.478809 -0.745651,1.000913 -1.5917931,1.845882 -3.249378,3.244874 -0.2586954,0.218336 -0.4843805,0.409852 -0.5015233,0.425589 -0.017142,0.01574 -0.030753,0.02383 -0.030245,0.01799 5.097e-4,-0.0058 0.036361,-0.127926 0.079674,-0.2713 z M 11.232262,2.6111616 c 0.01426,-0.011835 0.02332,-0.00761 0.05446,0.025408 0.02054,0.021782 0.05648,0.075998 0.07985,0.1204801 0.02337,0.044481 0.04714,0.080876 0.05282,0.080876 0.02401,0 0.09443,0.076531 0.136154,0.1479765 0.02472,0.042326 0.09013,0.1372759 0.145365,0.2110007 0.301597,0.4025888 0.382765,0.5172307 0.514724,0.7269998 0.221999,0.3528987 0.407439,0.6370837 0.533844,0.8181103 0.06312,0.090387 0.147221,0.2229937 0.186901,0.2946803 0.40143,0.7252243 0.836721,1.5344481 1.15743,2.1517082 l 0.184599,0.3552925 -0.01405,0.06406 c -0.05467,0.2491831 -0.243427,0.518792 -0.49776,0.710972 -0.191359,0.1445954 -0.537972,0.2931241 -0.840024,0.3599633 -0.265574,0.058767 -0.377697,0.069367 -0.725367,0.068576 -0.177658,-3.856e-4 -0.345846,-0.00551 -0.37375,-0.011337 -0.05987,-0.012511 -0.04935,0.026183 -0.107541,-0.3954167 C 11.616449,7.5909226 11.559722,6.9792664 11.441886,5.342707 11.349664,4.0618889 11.293204,3.3976079 11.231888,2.8719269 11.210505,2.6886123 11.21059,2.629147 11.232273,2.6111616 Z m -0.0046,32.5509124 c 0.05015,-0.385046 0.122733,-1.233624 0.214261,-2.504782 0.117836,-1.636559 0.174563,-2.248215 0.278025,-2.997804 0.05819,-0.421599 0.04767,-0.382905 0.107541,-0.395416 0.0279,-0.0058 0.196092,-0.01093 0.37375,-0.01134 0.34767,-7.92e-4 0.459793,0.0098 0.725367,0.06858 0.302052,0.06684 0.648665,0.215368 0.840024,0.359963 0.254333,0.19218 0.443089,0.46179 0.49776,0.710973 l 0.01405,0.06406 -0.184599,0.355292 c -0.320709,0.61726 -0.756,1.426484 -1.15743,2.151708 -0.03968,0.07169 -0.123785,0.204293 -0.186901,0.294681 -0.126405,0.181026 -0.311845,0.465211 -0.533844,0.81811 -0.131959,0.209769 -0.213127,0.324411 -0.514724,0.727 -0.05523,0.07372 -0.120646,0.168675 -0.145365,0.211 -0.04173,0.07145 -0.112143,0.147977 -0.136154,0.147977 -0.0057,0 -0.02945,0.03639 -0.05282,0.08088 -0.02337,0.04448 -0.05931,0.0987 -0.07985,0.12048 -0.03114,0.03302 -0.0402,0.03724 -0.05446,0.02541 -0.01918,-0.01592 -0.02093,-0.101625 -0.0046,-0.226764 z m 1.527756,-16.258412 c 0.04536,-0.09798 0.118003,-0.137394 0.34444,-0.186885 0.08306,-0.01816 0.166032,-0.03963 0.18439,-0.04773 0.0262,-0.01156 0.256338,-0.01618 1.070423,-0.02149 1.084427,-0.0071 1.083298,-0.007 1.388397,-0.06031 0.549415,-0.09596 1.09497,-0.334156 1.589843,-0.694129 0.30607,-0.222637 0.616135,-0.50812 1.105889,-1.018215 0.143641,-0.149606 0.265938,-0.273935 0.271771,-0.276285 0.01743,-0.007 -0.0023,0.111909 -0.04435,0.267748 -0.09586,0.355054 -0.119342,0.454692 -0.128531,0.545349 -0.01761,0.173777 0.0182,0.309961 0.107522,0.408825 0.06694,0.0741 0.088,0.08122 0.202005,0.06826 0.203453,-0.02312 0.306126,-0.07746 0.546439,-0.289201 0.161241,-0.142073 0.224135,-0.18012 0.344433,-0.208362 0.46941,-0.110205 1.115359,-0.07171 1.507063,0.08982 0.05696,0.02349 0.101998,0.03421 0.143731,0.03421 0.03343,0 0.06076,0.0038 0.06074,0.0085 -2.3e-5,0.0047 -0.01093,0.02635 -0.02424,0.04817 -0.215303,0.352951 -0.360092,0.753169 -0.405821,1.121755 -0.01536,0.123821 -0.01536,0.4888 0,0.612622 0.04573,0.368586 0.190518,0.768803 0.405821,1.121754 0.01331,0.02182 0.02422,0.04349 0.02424,0.04817 2.2e-5,0.0047 -0.02731,0.0085 -0.06074,0.0085 -0.04173,0 -0.08677,0.01072 -0.143731,0.03421 -0.391704,0.161527 -1.037653,0.200024 -1.507063,0.08982 -0.120298,-0.02824 -0.183192,-0.06629 -0.344433,-0.208363 -0.240313,-0.211742 -0.342986,-0.266083 -0.546439,-0.2892 -0.114,-0.01295 -0.135062,-0.0058 -0.202005,0.06826 -0.08932,0.09886 -0.125135,0.235049 -0.107522,0.408825 0.0092,0.09066 0.03267,0.190295 0.128531,0.545349 0.04207,0.155839 0.06177,0.27477 0.04435,0.267748 -0.0058,-0.0023 -0.12813,-0.126678 -0.271771,-0.276285 -0.489754,-0.510095 -0.799819,-0.795577 -1.105889,-1.018215 -0.494873,-0.359972 -1.040428,-0.598163 -1.589843,-0.694128 -0.305099,-0.05329 -0.30397,-0.05324 -1.388397,-0.06031 -0.814085,-0.0053 -1.044223,-0.0099 -1.070423,-0.02149 -0.01836,-0.0081 -0.101333,-0.02958 -0.18439,-0.04773 -0.167022,-0.0365 -0.241872,-0.06507 -0.290854,-0.110989 -0.04457,-0.04179 -0.07458,-0.111082 -0.07458,-0.172233 0,-0.02805 0.0094,-0.0714 0.02099,-0.09634 z m 4.552322,-0.450157 c 0.03978,0.09523 0.12577,0.149312 0.237411,0.149312 0.153344,0 0.255011,-0.101469 0.255011,-0.254514 0,-0.15177 -0.101526,-0.254189 -0.252542,-0.254762 -0.110151,-4.2e-4 -0.193428,0.04949 -0.235993,0.141424 -0.02603,0.05622 -0.02789,0.16107 -0.0039,0.21854 z m 0,1.303393 c 0.03978,0.09523 0.12577,0.149312 0.237411,0.149312 0.153344,0 0.255011,-0.101469 0.255011,-0.254514 0,-0.15177 -0.101526,-0.254189 -0.252542,-0.254762 -0.110151,-4.2e-4 -0.193428,0.04949 -0.235993,0.141424 -0.02603,0.05622 -0.02789,0.16107 -0.0039,0.21854 z m 0.657364,-1.280725 c 0.03978,0.09523 0.125769,0.149312 0.23741,0.149312 0.153344,0 0.255012,-0.10147 0.255012,-0.254514 0,-0.151771 -0.101526,-0.254189 -0.252542,-0.254763 -0.110152,-4.19e-4 -0.193428,0.04949 -0.235994,0.141424 -0.02603,0.05622 -0.02789,0.16107 -0.0039,0.218541 z m 0,1.258057 c 0.03978,0.09523 0.125769,0.149313 0.23741,0.149313 0.153344,0 0.255012,-0.10147 0.255012,-0.254514 0,-0.151771 -0.101526,-0.254189 -0.252542,-0.254763 -0.110152,-4.2e-4 -0.193428,0.04949 -0.235994,0.141424 -0.02603,0.05622 -0.02789,0.16107 -0.0039,0.21854 z m 0.55929,-1.249921 c 0.02597,0.05596 0.08488,0.111764 0.135999,0.12882 0.05831,0.01946 0.15906,0.01533 0.210818,-0.0086 0.09105,-0.04215 0.141674,-0.125603 0.141674,-0.233524 0,-0.151771 -0.101527,-0.254189 -0.252543,-0.254763 -0.110151,-4.19e-4 -0.193428,0.04949 -0.235993,0.141424 -0.02781,0.06007 -0.02779,0.166682 4.7e-5,0.226677 z m -0.0039,1.249921 c 0.03978,0.09523 0.125769,0.149313 0.23741,0.149313 0.153344,0 0.255011,-0.10147 0.255011,-0.254514 0,-0.107921 -0.05063,-0.191371 -0.141673,-0.233524 -0.05176,-0.02397 -0.152504,-0.02809 -0.210818,-0.0086 -0.05112,0.01706 -0.110034,0.07286 -0.135999,0.128819 -0.02608,0.0562 -0.02796,0.161011 -0.0039,0.21854 z m 1.226289,-1.228194 c 0.121918,-0.02753 0.2915,-0.149418 0.404834,-0.290967 0.08432,-0.10532 0.17697,-0.283271 0.205012,-0.39379 0.03408,-0.134319 0.0075,-0.29753 -0.05714,-0.351199 -0.01623,-0.01347 -0.02954,-0.0044 -0.109388,0.07443 -0.264899,0.261547 -0.470534,0.65365 -0.473666,0.903182 l -8.22e-4,0.06539 z m -0.0089,1.192528 c 0.05917,0.246801 0.236969,0.544396 0.452222,0.756927 0.07985,0.07884 0.09316,0.0879 0.109388,0.07443 0.06467,-0.05367 0.09122,-0.21688 0.05714,-0.351199 -0.02804,-0.110518 -0.120687,-0.28847 -0.205012,-0.39379 -0.113334,-0.141548 -0.282916,-0.263433 -0.404834,-0.290967 -0.03096,-0.007 -0.03117,-0.0066 -0.03109,0.05268 4.3e-5,0.03285 0.01003,0.10121 0.02219,0.151922 z m 0.505936,-1.140585 c 0.03082,0 0.179462,-0.09687 0.242281,-0.157895 0.171152,-0.166262 0.277481,-0.402875 0.300848,-0.669476 0.0069,-0.07883 -0.009,-0.25651 -0.02431,-0.27124 -0.01115,-0.01074 -0.10321,0.09988 -0.187646,0.225458 -0.08879,0.132049 -0.192286,0.338619 -0.247243,0.493469 -0.06536,0.184175 -0.108582,0.379684 -0.08393,0.379684 z m 0.01517,1.037048 c 0.0567,0.235185 0.182144,0.521075 0.315997,0.720146 0.08444,0.125577 0.176501,0.236194 0.187646,0.225459 0.01529,-0.01473 0.03122,-0.192415 0.02431,-0.271241 -0.02337,-0.2666 -0.129696,-0.503214 -0.300848,-0.669476 -0.06282,-0.06102 -0.211462,-0.157895 -0.242281,-0.157895 -0.01287,0 -0.0067,0.0623 0.01517,0.153007 z m 0.394502,-1.087286 c 0.249356,-0.04356 0.44426,-0.354015 0.484943,-0.772442 l 0.0078,-0.08031 -0.05774,-0.03019 c -0.08474,-0.04431 -0.09364,-0.04142 -0.125106,0.04064 -0.01494,0.03896 -0.07433,0.16264 -0.131974,0.274845 -0.121136,0.235784 -0.1531,0.309036 -0.191445,0.438728 -0.03917,0.132479 -0.03861,0.137835 0.01352,0.128729 z m 0.0048,1.170802 c 0.01868,0.0584 0.08873,0.213958 0.155672,0.345682 0.06694,0.131725 0.134057,0.271376 0.149153,0.310336 0.03179,0.08204 0.04069,0.08493 0.125389,0.04064 l 0.05774,-0.03019 -0.0078,-0.08031 c -0.0408,-0.419588 -0.235444,-0.72876 -0.486496,-0.772733 l -0.04405,-0.0077 0.0082,0.04406 c 0.0045,0.02423 0.0235,0.09184 0.04218,0.150238 z M 18.896066,8.0700527 c 0.01478,-0.014779 0.108328,-0.00649 0.173121,0.015336 0.07784,0.026224 0.134221,0.05823 0.289728,0.1644853 0.108931,0.074431 0.233743,0.1416123 0.263127,0.1416307 0.02165,1.15e-5 0.01673,0.014206 -0.01554,0.044837 -0.04069,0.03862 -0.03197,0.095658 0.02658,0.1738053 0.06259,0.083541 0.06727,0.092329 0.04134,0.077599 C 19.602204,8.6467277 19.302188,8.4533632 19.214791,8.3915132 19.068093,8.2876961 18.87409,8.0920283 18.896066,8.0700527 Z m 0.05766,21.7719273 c 0.110392,-0.129341 0.264999,-0.247852 0.562668,-0.431301 0.06812,-0.04198 0.136779,-0.08478 0.152568,-0.0951 0.03436,-0.02247 0.0303,-0.01407 -0.03588,0.07428 -0.05855,0.07815 -0.06727,0.135186 -0.02658,0.173804 0.03227,0.03063 0.03719,0.04482 0.01554,0.04484 -0.02938,0 -0.154196,0.0672 -0.263127,0.14163 -0.155507,0.106255 -0.211884,0.138263 -0.289728,0.164486 -0.06858,0.0231 -0.163647,0.03015 -0.174296,0.01292 -0.0033,-0.0053 0.0232,-0.0438 0.05883,-0.08555 z M 19.866268,8.8335334 c 0.01,0 0.07831,0.00772 0.151878,0.017159 0.234889,0.030134 0.360261,0.079242 0.470325,0.1842253 0.09976,0.095156 0.08574,0.1222086 -0.04275,0.08252 -0.06288,-0.019423 -0.08352,-0.021451 -0.114437,-0.011246 -0.08554,0.028231 -0.04999,0.1208768 0.110398,0.2877554 0.108407,0.1127892 0.147906,0.1710894 0.16285,0.2403596 l 0.0077,0.035739 0.149513,0.00466 c 0.120727,0.00376 0.162046,0.00958 0.214605,0.030215 0.09446,0.037088 0.186714,0.1115616 0.291778,0.2355478 0.08011,0.094546 0.09025,0.1112085 0.07621,0.1252545 -0.02801,0.02801 -0.09173,0.03466 -0.273644,0.02854 -0.16866,-0.0057 -0.176434,-0.005 -0.176434,0.0159 0,0.0534 0.03476,0.145633 0.09393,0.249223 0.06596,0.115485 0.08094,0.151182 0.09224,0.21982 l 0.0066,0.03993 0.104808,0.0011 c 0.0602,6.34e-4 0.152377,0.01138 0.216561,0.02524 0.06146,0.01328 0.150786,0.02414 0.198493,0.02414 h 0.08674 l 0.01374,0.05784 c 0.0076,0.03181 0.03331,0.08919 0.05723,0.127506 0.02392,0.03832 0.04911,0.08497 0.05599,0.103667 0.01608,0.04374 0.02628,0.103365 0.01893,0.110711 -0.0031,0.0031 -0.02921,-0.0014 -0.05792,-0.01 -0.113733,-0.03423 -0.326953,-0.01506 -0.453078,0.04073 -0.06118,0.02706 -0.06159,0.03632 -0.0093,0.208934 0.03261,0.107569 0.117614,0.326316 0.132657,0.341359 0.0021,0.0021 0.05586,0.0075 0.119373,0.01185 0.109088,0.0075 0.114831,0.0092 0.10387,0.02963 -0.0064,0.01192 -0.06933,0.06439 -0.139878,0.116596 -0.154479,0.114304 -0.201268,0.160879 -0.23814,0.237054 -0.02236,0.04618 -0.02809,0.05213 -0.02843,0.02951 -2.57e-4,-0.01558 -0.01579,-0.118953 -0.03456,-0.229708 C 21.065292,10.849061 20.792994,10.074181 20.407509,9.4930082 20.274706,9.2927903 20.168343,9.161198 20.000433,8.989373 19.915521,8.902482 19.856162,8.8335326 19.866268,8.8335326 Z M 20.003107,29.00779 c 0.165215,-0.168897 0.271819,-0.300914 0.404402,-0.5008 0.385485,-0.581172 0.657783,-1.356053 0.826609,-2.352297 0.01877,-0.110756 0.03432,-0.214125 0.03456,-0.229709 3.43e-4,-0.02262 0.0061,-0.01667 0.02843,0.02951 0.03687,0.07617 0.08366,0.122749 0.23814,0.237053 0.07055,0.0522 0.133497,0.104672 0.139878,0.116596 0.01096,0.02048 0.0052,0.02212 -0.10387,0.02963 -0.06351,0.0044 -0.117228,0.0097 -0.119373,0.01185 -0.01504,0.01504 -0.100052,0.233789 -0.132657,0.341358 -0.05232,0.172618 -0.05191,0.181872 0.0093,0.208934 0.126125,0.05579 0.339345,0.07496 0.453078,0.04073 0.02871,-0.0086 0.05478,-0.01314 0.05792,-0.01 0.0073,0.0073 -0.0028,0.06697 -0.01893,0.110711 -0.0069,0.0187 -0.03207,0.06535 -0.05599,0.103668 -0.02392,0.03832 -0.04967,0.09569 -0.05723,0.127506 l -0.01374,0.05784 h -0.08674 c -0.04771,0 -0.13703,0.01086 -0.198493,0.02414 -0.06418,0.01387 -0.156366,0.02461 -0.216561,0.02524 l -0.104808,0.0011 -0.0066,0.03993 c -0.0113,0.06864 -0.02628,0.104335 -0.09224,0.219819 -0.05917,0.10359 -0.09393,0.195824 -0.09393,0.249224 0,0.02086 0.0078,0.02156 0.176434,0.0159 0.18191,-0.0061 0.245634,5.32e-4 0.273644,0.02854 0.01405,0.01405 0.0039,0.03071 -0.07621,0.125256 -0.105064,0.123986 -0.197316,0.198459 -0.291778,0.235547 -0.05256,0.02063 -0.09388,0.02645 -0.214605,0.03022 l -0.149513,0.0047 -0.0077,0.03574 c -0.01494,0.06927 -0.05444,0.12757 -0.16285,0.24036 -0.160393,0.166879 -0.195937,0.259525 -0.110398,0.287755 0.03092,0.0102 0.05155,0.0082 0.114437,-0.01125 0.128496,-0.03969 0.142511,-0.01263 0.04275,0.08252 -0.112049,0.106876 -0.232688,0.153554 -0.47733,0.184693 -0.08232,0.01048 -0.15148,0.01724 -0.153688,0.01504 -0.0022,-0.0022 0.06334,-0.07287 0.145654,-0.15702 z m 0.506132,-13.260606 c 0.08657,-0.177658 0.193998,-0.402069 0.23873,-0.49869 0.275549,-0.595197 0.423626,-1.102134 0.475723,-1.628632 l 0.01368,-0.13823 0.09262,0.150429 c 0.113068,0.183646 0.179149,0.271459 0.283418,0.376627 0.168462,0.169912 0.358052,0.257976 0.631607,0.293379 l 0.05302,0.0069 -0.01618,0.03873 c -0.01181,0.02826 -0.01618,0.0894 -0.01618,0.226106 0,0.103055 -0.0031,0.187373 -0.0068,0.187373 -0.0038,0 -0.05086,-0.02063 -0.10467,-0.04585 -0.09846,-0.04614 -0.227701,-0.129783 -0.489194,-0.316602 -0.07792,-0.05567 -0.182587,-0.122692 -0.232594,-0.148939 -0.111288,-0.05841 -0.140114,-0.05586 -0.177638,0.01572 -0.02294,0.04376 -0.02581,0.06996 -0.03261,0.297332 -0.0058,0.194019 -0.01186,0.26187 -0.02732,0.305794 l -0.01987,0.05645 0.04951,0.04281 c 0.06377,0.05514 0.182388,0.116567 0.366853,0.189974 0.29149,0.115998 0.407707,0.194409 0.466951,0.315052 0.02766,0.05633 0.03165,0.07733 0.03105,0.163552 -3.86e-4,0.05441 -0.0043,0.102561 -0.0088,0.107012 -0.01287,0.01287 -0.158296,-0.0461 -0.58555,-0.237401 -0.228567,-0.102342 -0.381093,-0.158138 -0.447687,-0.163767 -0.04829,-0.0041 -0.06448,2.14e-4 -0.109512,0.02917 -0.03158,0.0203 -0.06547,0.05551 -0.08423,0.08752 -0.03214,0.05484 -0.09527,0.248956 -0.09527,0.292935 0,0.05248 0.189929,0.140135 0.544025,0.251082 0.283513,0.08883 0.413473,0.138551 0.510023,0.195124 l 0.07367,0.04317 -0.0013,0.06747 c -9.08e-4,0.0487 -0.01273,0.09656 -0.0425,0.172064 -0.02268,0.05753 -0.04125,0.115752 -0.04125,0.129389 0,0.02026 -0.01296,0.01126 -0.07084,-0.04918 -0.0829,-0.08658 -0.211854,-0.173932 -0.328223,-0.222344 -0.184735,-0.07685 -0.376162,-0.123476 -0.903391,-0.22003 -0.0774,-0.01417 -0.142071,-0.03087 -0.143709,-0.03711 -0.0016,-0.0062 0.06785,-0.15669 0.154423,-0.334348 z M 20.36441,21.90717 c 0.0078,-0.0027 0.141673,-0.02825 0.297513,-0.05676 0.640552,-0.117202 0.869434,-0.205448 1.068216,-0.411846 0.058,-0.06023 0.07084,-0.06906 0.07084,-0.04876 0,0.01364 0.01856,0.07186 0.04125,0.129388 0.02977,0.0755 0.04159,0.123361 0.0425,0.172064 l 0.0013,0.06747 -0.07367,0.04317 c -0.09655,0.05657 -0.22651,0.106293 -0.510023,0.195124 -0.354096,0.110947 -0.544025,0.198604 -0.544025,0.251082 0,0.04398 0.06313,0.238092 0.09527,0.292935 0.01876,0.03201 0.05265,0.06722 0.08423,0.08752 0.04503,0.02895 0.06122,0.03326 0.109512,0.02917 0.06659,-0.0056 0.21912,-0.06142 0.447687,-0.163768 0.427254,-0.191305 0.572684,-0.250267 0.58555,-0.237401 0.0045,0.0045 0.0084,0.05261 0.0088,0.107012 6.04e-4,0.08622 -0.0034,0.10722 -0.03105,0.163552 -0.05924,0.120643 -0.175461,0.199054 -0.466951,0.315052 -0.184465,0.07341 -0.303087,0.134835 -0.366854,0.189975 l -0.0495,0.04281 0.01987,0.05645 c 0.01546,0.04392 0.02152,0.111775 0.02732,0.305794 0.0068,0.22737 0.0097,0.253575 0.03261,0.297332 0.03752,0.07158 0.06635,0.07413 0.177638,0.01572 0.05001,-0.02625 0.154674,-0.09327 0.232594,-0.148939 0.261493,-0.18682 0.390731,-0.270461 0.489194,-0.316603 0.05381,-0.02522 0.100913,-0.04585 0.10467,-0.04585 0.0038,0 0.0068,0.08432 0.0068,0.187372 0,0.136708 0.0044,0.197846 0.01618,0.226106 l 0.01618,0.03873 -0.05302,0.0069 c -0.273555,0.0354 -0.463145,0.123466 -0.631607,0.293379 -0.104269,0.105166 -0.17035,0.19298 -0.283418,0.376627 l -0.09262,0.150429 -0.01368,-0.138231 c -0.04968,-0.50207 -0.186542,-0.986584 -0.434429,-1.537961 -0.04064,-0.09039 -0.15604,-0.334214 -0.256453,-0.541835 -0.100412,-0.207622 -0.182568,-0.379915 -0.182568,-0.382874 0,-0.003 0.0064,-0.0076 0.01417,-0.0103 z m 0.864574,-9.322131 c 0.04899,-0.350887 0.217667,-0.648541 0.453297,-0.799908 l 0.06769,-0.04348 0.929376,6.08e-4 c 0.912858,5.96e-4 1.144072,0.0047 2.748459,0.04939 0.439471,0.01223 1.008147,0.02798 1.263725,0.035 0.255579,0.007 0.876988,0.01605 1.38091,0.02007 l 0.916223,0.0073 -0.258859,0.0949 c -3.175692,1.164236 -4.70054,1.678771 -6.269519,2.115549 -0.382564,0.1065 -0.360415,0.104578 -0.518669,0.04501 -0.212785,-0.08009 -0.426957,-0.284676 -0.54607,-0.521627 -0.154409,-0.307163 -0.213782,-0.664615 -0.166565,-1.002799 z m -8.6e-5,12.363254 c 0.04748,-0.348071 0.190332,-0.649439 0.405891,-0.85628 0.103479,-0.09929 0.194992,-0.159387 0.306821,-0.201478 0.158253,-0.05957 0.136104,-0.06149 0.518668,0.04501 1.568979,0.436778 3.093827,0.951314 6.269519,2.11555 l 0.258862,0.0949 -0.916222,0.0073 c -0.503923,0.004 -1.125332,0.01304 -1.380911,0.02006 -0.255578,0.007 -0.824254,0.02277 -1.263724,0.035 -1.604388,0.04464 -1.835601,0.0488 -2.74846,0.04939 l -0.929375,5.99e-4 -0.06769,-0.04348 c -0.343394,-0.220594 -0.526338,-0.73168 -0.453376,-1.266578 z"
       id="path1085"
       inkscape:connector-curvature="0" />
  </g>
  <g
     id="g826"
     inkscape:groupmode="layer"
     inkscape:label="B.Cu-disabled" />
  <g
     id="g828"
     inkscape:groupmode="layer"
     inkscape:label="B.Adhes-disabled" />
  <g
     id="g830"
     inkscape:groupmode="layer"
     inkscape:label="F.Adhes-disabled" />
  <g
     id="g832"
     inkscape:groupmode="layer"
     inkscape:label="B.Paste-disabled" />
  <g
     id="g834"
     inkscape:groupmode="layer"
     inkscape:label="F.Paste-disabled" />
  <g
     id="g836"
     inkscape:groupmode="layer"
     inkscape:label="B.SilkS-disabled" />
  <g
     id="g838"
     inkscape:groupmode="layer"
     inkscape:label="F.SilkS"
     style="display:inline">
    <path
       style="display:inline;fill:#000000;fill-opacity:1;stroke-width:0.01133385"
       d="m 5.6635795,15.565842 c 0.030896,-0.03429 0.089417,-0.112029 0.1300477,-0.172766 0.040631,-0.06074 0.077892,-0.112914 0.082803,-0.115949 0.00491,-0.003 0.011215,0.03398 0.01401,0.08225 0.00683,0.117943 0.044121,0.191341 0.2077426,0.408865 0.07097,0.09435 0.1495208,0.206619 0.1745549,0.249483 0.053342,0.09133 0.1504615,0.185493 0.3862102,0.374442 0.2922515,0.234235 0.5398745,0.39889 0.8207717,0.545765 0.5398402,0.282269 1.1514275,0.444532 1.7776636,0.471638 l 0.1698515,0.0074 0.2450982,0.204921 c 0.5749261,0.480681 0.8156581,0.77174 0.9710141,1.174005 0.03424,0.08866 0.03627,0.10087 0.02495,0.150325 -0.0089,0.03875 -0.0089,0.0689 0,0.107653 0.01132,0.04946 0.0093,0.06167 -0.02495,0.150326 -0.155356,0.402264 -0.396088,0.693323 -0.9710141,1.174005 l -0.2450982,0.20492 -0.1698515,0.0074 c -0.6262361,0.02711 -1.2378234,0.189369 -1.7776636,0.471638 -0.2808972,0.146876 -0.5285202,0.31153 -0.8207717,0.545765 -0.2357487,0.188949 -0.3328683,0.283109 -0.3862102,0.374442 -0.025034,0.04286 -0.1035845,0.155132 -0.1745549,0.249483 -0.1636221,0.217524 -0.2009153,0.290922 -0.2077426,0.408866 -0.00279,0.04827 -0.0091,0.08528 -0.01401,0.08225 -0.00491,-0.003 -0.042192,-0.05521 -0.082846,-0.115948 -0.040653,-0.06074 -0.099697,-0.139252 -0.1312064,-0.174478 l -0.05729,-0.06405 0.09805,-0.139963 c 0.6689048,-0.954826 1.5197997,-1.543489 2.6275531,-1.817788 0.290045,-0.07182 0.7937654,-0.152529 0.9522536,-0.152577 0.038819,-1.1e-5 0.061415,-0.01192 0.1530068,-0.08063 0.3540141,-0.265559 0.6363837,-0.57132 0.8185827,-0.886393 0.039,-0.06745 0.08703,-0.142609 0.106729,-0.167024 0.06245,-0.07741 0.06095,-0.176457 -0.0039,-0.253632 -0.01758,-0.02094 -0.06387,-0.09342 -0.102877,-0.161074 -0.181312,-0.314501 -0.4641442,-0.620892 -0.8185833,-0.88677 -0.091592,-0.06871 -0.1141874,-0.08061 -0.1530068,-0.08062 -0.02505,-8e-6 -0.1143982,-0.008 -0.198552,-0.01771 -1.3710902,-0.158587 -2.4031736,-0.705858 -3.1879545,-1.69044 -0.065109,-0.08168 -0.263051,-0.356321 -0.2800439,-0.388549 -0.00632,-0.01199 0.00767,-0.03554 0.047185,-0.07939 z m 0.407302,-0.617695 c 0.049649,-0.0748 0.1141151,-0.169944 0.1432568,-0.211422 l 0.052985,-0.07542 0.018546,0.06975 c 0.064282,0.241739 0.2291909,0.552425 0.4280539,0.806449 0.1476256,0.188574 0.4125101,0.429711 0.6393278,0.582011 0.5254724,0.352833 1.1786378,0.467701 1.7474034,0.307303 0.062852,-0.01773 0.1499787,-0.04665 0.1936142,-0.06427 0.079158,-0.03197 0.079392,-0.0322 0.1039992,-0.09986 0.030461,-0.08376 0.065969,-0.235601 0.09007,-0.385163 0.032293,-0.200408 0.033818,-0.748404 0.00353,-1.269391 -0.033104,-0.569442 -0.035859,-1.063233 -0.0068,-1.21839 0.12612,-0.673335 0.2731583,-1.130618 0.5247892,-1.632074 0.454405,-0.905551 1.12234,-1.57401 2.038534,-2.0401343 0.730882,-0.3718445 1.566828,-0.5841761 2.595452,-0.6592481 0.244711,-0.01786 1.014884,-0.017722 1.275059,2.141e-4 0.262986,0.018143 0.545416,0.044195 0.752182,0.069382 l 0.168489,0.020524 0.205529,-0.056407 c 0.254755,-0.069918 0.505086,-0.1265364 0.675883,-0.1528663 0.185395,-0.028581 0.564663,-0.02849 0.716297,1.713e-4 l 0.109937,0.02078 0.117374,0.1214894 c 0.135599,0.1403528 0.212471,0.2565309 0.261879,0.3957798 0.06663,0.1877914 0.04428,0.3713039 -0.106562,0.8749041 -0.09889,0.330156 -0.118765,0.407563 -0.14608,0.568949 -0.04884,0.288589 -0.04599,0.337663 0.06706,1.153797 0.09548,0.689297 0.120011,0.93135 0.135552,1.337768 0.0175,0.457644 -0.0021,0.660109 -0.108553,1.120699 -0.162436,0.702881 -0.412239,1.291759 -0.772311,1.820617 -0.268771,0.394759 -0.633789,0.765691 -1.035623,1.052401 -0.424985,0.30323 -0.959397,0.55463 -1.528412,0.719004 -0.281717,0.08138 -0.337774,0.0916 -0.532402,0.09702 -0.101726,0.0028 -0.188033,0.0098 -0.191794,0.01558 -0.01029,0.01569 -0.213869,0.02594 -0.635866,0.03202 -0.208826,0.003 -0.435787,0.01053 -0.504357,0.01671 -0.06857,0.0062 -0.201175,0.01581 -0.29468,0.02141 -0.317086,0.01896 -0.50718,0.06593 -0.722437,0.178501 -0.09695,0.0507 -0.14715,0.106557 -0.205665,0.22885 l -0.04661,0.09741 v 0.187008 0.187009 l 0.04661,0.09741 c 0.05851,0.122293 0.108713,0.17815 0.205665,0.228851 0.215257,0.112567 0.405351,0.159535 0.722437,0.1785 0.09351,0.0056 0.226111,0.01522 0.29468,0.02141 0.06857,0.0062 0.295531,0.0137 0.504357,0.01671 0.421997,0.0061 0.62558,0.01633 0.635866,0.03202 0.0038,0.0057 0.09007,0.01274 0.191794,0.01558 0.194628,0.0054 0.250685,0.01564 0.532402,0.09702 1.112042,0.32124 1.989363,0.927353 2.564035,1.771406 0.360072,0.528858 0.609875,1.117735 0.772311,1.820616 0.106442,0.46059 0.126053,0.663055 0.108553,1.120699 -0.01554,0.406418 -0.04007,0.648471 -0.135552,1.337768 -0.113054,0.816134 -0.115907,0.865208 -0.06706,1.153798 0.02732,0.161386 0.04719,0.238793 0.14608,0.568948 0.150843,0.5036 0.173195,0.687112 0.106562,0.874904 -0.04941,0.139249 -0.12628,0.255427 -0.261879,0.395781 l -0.117374,0.121489 -0.109937,0.02078 c -0.151634,0.02866 -0.530902,0.02875 -0.716297,1.71e-4 -0.170797,-0.02633 -0.421128,-0.08295 -0.675883,-0.152866 l -0.205529,-0.05641 -0.168489,0.02052 c -0.206766,0.02519 -0.489196,0.05124 -0.752182,0.06938 -0.260175,0.01795 -1.030348,0.01809 -1.275059,2.14e-4 -1.028624,-0.07507 -1.86457,-0.287403 -2.595452,-0.659248 C 11.132,27.816315 10.464065,27.147856 10.00966,26.242306 9.758029,25.740849 9.6109907,25.283566 9.4848707,24.610231 c -0.029062,-0.155157 -0.026307,-0.648948 0.0068,-1.218389 0.030287,-0.520988 0.028763,-1.068983 -0.00353,-1.269392 -0.024102,-0.149561 -0.059609,-0.3014 -0.09007,-0.385163 -0.024607,-0.06766 -0.024841,-0.06789 -0.1039992,-0.09986 -0.2208244,-0.0892 -0.4633473,-0.134509 -0.7196996,-0.134465 -0.6044151,1.12e-4 -1.1642168,0.247408 -1.6444687,0.72648 -0.1648679,0.164462 -0.237051,0.250865 -0.3487663,0.417474 -0.1296013,0.193284 -0.2610776,0.471923 -0.2983741,0.632343 l -0.013861,0.05962 -0.02704,-0.03585 C 6.2066625,23.256354 5.9789165,22.9104 5.9789165,22.903602 c 0,-0.0029 0.012623,-0.002 0.028049,0.0018 0.044729,0.01123 0.087495,-0.04146 0.1249526,-0.153929 0.046616,-0.139978 0.06925,-0.186202 0.1197352,-0.244533 0.024825,-0.02868 0.051892,-0.06828 0.060148,-0.08799 0.017751,-0.04238 0.075332,-0.123042 0.1783061,-0.249761 0.04116,-0.05065 0.093774,-0.121701 0.1169191,-0.157887 0.032232,-0.05039 0.071746,-0.08782 0.1688405,-0.159928 0.5577956,-0.414239 1.0443668,-0.63299 1.594493,-0.716849 0.1611037,-0.02456 0.561336,-0.02767 0.7367001,-0.0057 0.1378277,0.01725 0.2121847,0.04837 0.3320626,0.138978 0.3421068,0.258583 0.4887456,0.815463 0.4501005,1.709308 -0.00663,0.153301 -0.027701,0.462337 -0.046829,0.686747 -0.039192,0.459784 -0.038624,0.5278 0.00695,0.831342 0.1246974,0.830623 0.3795238,1.515562 0.7853728,2.110964 0.313279,0.4596 0.775104,0.893513 1.266143,1.189619 0.596868,0.359923 1.315875,0.600396 2.130764,0.712637 0.335583,0.04622 0.52661,0.05885 0.987016,0.06522 0.570659,0.0079 0.934243,-0.0114 1.45543,-0.07727 0.102854,-0.013 0.213742,-0.02327 0.246418,-0.02283 0.08133,0.0011 0.22948,0.02814 0.405278,0.07397 0.08104,0.02112 0.236594,0.06167 0.345683,0.0901 0.29725,0.07747 0.380611,0.09107 0.561025,0.09152 0.1794,4.54e-4 0.258662,-0.01537 0.3793,-0.07572 0.07451,-0.03728 0.08074,-0.04445 0.148875,-0.171514 0.02027,-0.03779 0.0235,-0.06238 0.02234,-0.170008 -0.0022,-0.206597 -0.03289,-0.349093 -0.138791,-0.644771 -0.119541,-0.333775 -0.145428,-0.462215 -0.145268,-0.720763 2.23e-4,-0.359773 0.0245,-0.645341 0.119129,-1.40108 0.07437,-0.593952 0.0961,-0.855561 0.0961,-1.156626 0,-0.416955 -0.03704,-0.695357 -0.140152,-1.053474 -0.243331,-0.845094 -0.61799,-1.511977 -1.146173,-2.04016 -0.545941,-0.545941 -1.221175,-0.911502 -2.083439,-1.127939 l -0.22462,-0.05638 -0.563083,-1.11e-4 c -1.012591,-1.93e-4 -1.446066,-0.04147 -1.860809,-0.177187 -0.244669,-0.08006 -0.481368,-0.225761 -0.606928,-0.37359 -0.05792,-0.0682 -0.05873,-0.0702 -0.07963,-0.198191 -0.02948,-0.180581 -0.02948,-0.5427 0,-0.723282 0.02089,-0.127965 0.0217,-0.129972 0.07963,-0.198169 0.12556,-0.147829 0.362259,-0.293527 0.606928,-0.37359 0.414743,-0.135716 0.848218,-0.176992 1.860809,-0.177187 l 0.563083,-1.11e-4 0.22462,-0.05638 c 0.862264,-0.216437 1.537498,-0.581998 2.083439,-1.12794 0.528183,-0.528173 0.902842,-1.195057 1.146173,-2.040151 0.103114,-0.358117 0.140152,-0.636518 0.140152,-1.053474 0,-0.301065 -0.02174,-0.562674 -0.0961,-1.156627 -0.09463,-0.755739 -0.118906,-1.041307 -0.119129,-1.40108 -1.58e-4,-0.258548 0.02573,-0.386987 0.145268,-0.720763 0.105897,-0.295678 0.13657,-0.4381741 0.138791,-0.6447707 0.0012,-0.10763 -0.0021,-0.1322152 -0.02234,-0.1700078 -0.06814,-0.1270658 -0.07436,-0.1342393 -0.148875,-0.1715144 -0.120638,-0.06035 -0.1999,-0.076174 -0.3793,-0.075725 -0.180414,4.498e-4 -0.263775,0.01405 -0.561025,0.091525 -0.109089,0.028432 -0.264646,0.068979 -0.345683,0.090102 -0.175798,0.045825 -0.323952,0.072865 -0.405278,0.073968 -0.03268,4.455e-4 -0.143564,-0.00983 -0.246418,-0.022829 -0.521187,-0.065869 -0.884771,-0.085173 -1.45543,-0.07727 -0.460406,0.00638 -0.651433,0.018999 -0.987016,0.065221 -1.24968,0.1721286 -2.232931,0.6281709 -2.958361,1.3721209 -0.659062,0.675887 -1.058192,1.537171 -1.2239188,2.641098 -0.04557,0.303543 -0.046138,0.371559 -0.00695,0.831343 0.077932,0.914268 0.069641,1.364988 -0.032552,1.769628 -0.070871,0.280615 -0.198474,0.496234 -0.3707191,0.626427 -0.1198779,0.09061 -0.1942349,0.121731 -0.3320626,0.138978 -0.1753641,0.02194 -0.5755964,0.01883 -0.7367001,-0.0057 C 7.8202336,16.781571 7.3336624,16.56282 6.7758668,16.148581 6.678772,16.076475 6.6392587,16.039047 6.6070263,15.988652 6.5838812,15.952467 6.5312676,15.881418 6.4901072,15.830766 6.3871335,15.704047 6.3295521,15.623388 6.3118011,15.581004 c -0.00826,-0.01971 -0.035323,-0.05931 -0.060148,-0.08799 -0.050485,-0.05833 -0.073119,-0.104554 -0.1197352,-0.244532 -0.037458,-0.112471 -0.080223,-0.165156 -0.1249526,-0.153929 -0.015426,0.0039 -0.027668,0.0031 -0.027202,-0.0017 4.626e-4,-0.0048 0.041469,-0.06992 0.091118,-0.144723 z m 4.5263685,1.981502 c 0.01877,-0.103463 0.06135,-0.231326 0.139004,-0.41743 0.08109,-0.194343 0.122908,-0.307482 0.14462,-0.391274 0.01711,-0.06604 0.0167,-0.07412 -0.01063,-0.207073 -0.09962,-0.48474 -0.145215,-0.93905 -0.14525,-1.447413 0,-0.705902 0.09287,-1.314572 0.291549,-1.909755 0.189898,-0.568892 0.462918,-1.047099 0.802912,-1.406335 0.212368,-0.224388 0.38832,-0.354268 0.659425,-0.486761 0.352057,-0.172056 0.774456,-0.292402 1.289869,-0.367498 0.734397,-0.107003 1.657838,-0.11307 2.519286,-0.01655 0.145968,0.01636 0.168674,0.01633 0.264856,-2.57e-4 0.05786,-0.01 0.158147,-0.03845 0.222862,-0.06326 0.06471,-0.02481 0.172109,-0.06597 0.238656,-0.09146 0.06655,-0.0255 0.157074,-0.05404 0.201175,-0.06342 0.0988,-0.02102 0.245171,-0.01428 0.340784,0.0157 0.06781,0.02126 0.06794,0.02138 0.07529,0.07276 0.004,0.0283 0.01868,0.07364 0.03251,0.100757 0.02191,0.04294 0.02414,0.05963 0.01736,0.129438 -0.01631,0.167757 -0.04961,0.28143 -0.156745,0.535099 -0.0346,0.08192 -0.07656,0.191573 -0.09324,0.243678 -0.02821,0.08809 -0.02982,0.10388 -0.02303,0.225075 0.01004,0.179171 0.05291,0.508537 0.108423,0.833038 0.08713,0.509321 0.100661,0.594606 0.123593,0.779008 0.04213,0.338765 0.04833,0.474249 0.02893,0.632205 -0.160998,1.310913 -0.675585,2.243824 -1.558072,2.824674 -0.528815,0.348064 -1.190892,0.562725 -2.006092,0.650423 -0.348636,0.03751 -0.570899,0.02304 -1.157512,-0.07533 -0.458303,-0.07686 -0.734121,-0.101437 -0.892169,-0.07951 -0.145111,0.02014 -0.271228,0.06704 -0.534398,0.198736 -0.303039,0.151651 -0.439045,0.198916 -0.595352,0.206892 -0.118515,0.006 -0.297294,-0.01971 -0.312986,-0.0451 -0.0121,-0.01959 -0.0325,-0.174689 -0.03139,-0.238734 5.66e-4,-0.03247 0.0077,-0.09561 0.01577,-0.140299 z m 0.374387,-2.907602 c 0.03949,0.318986 0.107341,0.584717 0.232122,0.9091 0.05315,0.138155 0.05467,0.145565 0.06124,0.298426 0.0037,0.08622 0.01523,0.244323 0.0256,0.35135 0.01037,0.107028 0.01917,0.2966 0.01955,0.421273 7.84e-4,0.258411 0.0033,0.247297 -0.115908,0.516687 -0.09098,0.205647 -0.144492,0.384354 -0.115089,0.384354 0.0068,0 0.05082,-0.02595 0.09782,-0.05767 0.188601,-0.127267 0.434685,-0.22767 0.677892,-0.276581 0.207085,-0.04165 0.367045,-0.05446 0.604213,-0.0484 l 0.212486,0.0054 0.107671,0.05121 c 0.481774,0.229138 1.210464,0.366051 1.678316,0.315338 0.721722,-0.07823 1.31025,-0.323622 1.88035,-0.784022 0.210325,-0.169854 0.317842,-0.278696 0.423438,-0.428658 0.419838,-0.596232 0.628866,-1.11564 0.693579,-1.723455 0.01928,-0.181077 0.02198,-0.657309 0.0043,-0.754453 -0.01519,-0.08336 -0.05661,-0.235061 -0.163822,-0.599942 -0.09696,-0.330013 -0.151163,-0.542449 -0.190842,-0.748035 -0.03353,-0.173733 -0.06377,-0.435603 -0.06375,-0.552035 0,-0.0961 0.0368,-0.256841 0.09673,-0.422676 0.04526,-0.125259 0.08439,-0.276852 0.08452,-0.327427 1.11e-4,-0.03249 -3.52e-4,-0.0327 -0.05467,-0.02626 -0.03011,0.0036 -0.149389,0.0373 -0.265065,0.07497 -0.115674,0.03767 -0.254914,0.07626 -0.309421,0.08577 -0.139225,0.02428 -0.353564,0.02163 -0.543821,-0.0067 -0.08727,-0.013 -0.232627,-0.02552 -0.323015,-0.02781 -0.164251,-0.0042 -0.16443,-0.0042 -0.328681,-0.06216 -0.449079,-0.158466 -0.858823,-0.224021 -1.320394,-0.211251 -0.596532,0.01651 -1.116619,0.171321 -1.620741,0.482451 -0.381533,0.235472 -0.780246,0.634689 -1.018243,1.019532 -0.280786,0.454032 -0.440964,0.944787 -0.483389,1.481021 -0.01276,0.161211 -0.0043,0.487996 0.01705,0.660639 z m 2.979323,-0.649305 c 0.0322,-0.06811 0.0745,-0.109753 0.142995,-0.140757 0.134219,-0.06076 0.292459,0.0014 0.358339,0.140757 0.06592,0.139439 0.0029,0.301395 -0.142995,0.367433 -0.09579,0.04336 -0.218913,0.02129 -0.298948,-0.05359 -0.04813,-0.04503 -0.08618,-0.13356 -0.08618,-0.200508 0,-0.03604 0.0098,-0.0773 0.02679,-0.113338 z m -3.355543,7.392971 c 0.0079,-0.04182 0.01669,-0.07839 0.01956,-0.08126 0.0029,-0.0029 0.04835,-0.01396 0.101061,-0.02464 0.0694,-0.01406 0.127289,-0.01781 0.209823,-0.0136 0.156307,0.008 0.292313,0.05524 0.595352,0.206893 0.26317,0.131698 0.389287,0.1786 0.534398,0.198736 0.158048,0.02193 0.433866,-0.0026 0.892169,-0.07951 0.586613,-0.09838 0.808876,-0.11284 1.157512,-0.07533 0.664052,0.07144 1.195109,0.217382 1.677411,0.460984 1.077996,0.544477 1.706822,1.549036 1.886753,3.014112 0.0194,0.157957 0.0132,0.293442 -0.02893,0.632206 -0.02293,0.184402 -0.03646,0.269687 -0.123593,0.779008 -0.05551,0.324501 -0.09838,0.653866 -0.108423,0.833038 -0.0068,0.121195 -0.0052,0.136985 0.02303,0.225075 0.01669,0.0521 0.05865,0.16176 0.09324,0.243678 0.107136,0.253669 0.140434,0.367342 0.156745,0.535099 0.0068,0.06981 0.0045,0.0865 -0.01736,0.129438 -0.01383,0.02711 -0.02846,0.07245 -0.03251,0.100757 -0.0073,0.05138 -0.0075,0.0515 -0.07529,0.07276 -0.09561,0.02998 -0.241983,0.03672 -0.340784,0.0157 -0.0441,-0.0094 -0.13463,-0.03792 -0.201175,-0.06342 -0.06655,-0.0255 -0.173942,-0.06666 -0.238656,-0.09146 -0.06471,-0.02481 -0.165003,-0.05327 -0.222862,-0.06326 -0.09618,-0.0166 -0.118888,-0.01662 -0.264856,-2.57e-4 -0.861448,0.09652 -1.784889,0.09045 -2.519286,-0.01655 -0.515413,-0.0751 -0.937812,-0.195443 -1.289869,-0.367499 -0.271105,-0.132493 -0.447057,-0.262373 -0.659425,-0.48676 -0.544991,-0.575837 -0.917289,-1.462149 -1.045393,-2.488719 -0.03844,-0.308018 -0.04909,-0.487643 -0.04907,-0.827371 0,-0.508983 0.04561,-0.962595 0.145574,-1.448983 l 0.02876,-0.139923 -0.02824,-0.09809 c -0.01554,-0.05395 -0.05461,-0.161841 -0.08683,-0.239761 -0.09532,-0.230522 -0.147444,-0.371679 -0.171116,-0.463412 -0.02839,-0.109996 -0.03632,-0.279033 -0.01772,-0.377661 z m 0.376546,4.037452 c 0.07033,0.568082 0.281783,1.088486 0.633125,1.558172 0.1343,0.179538 0.433576,0.478815 0.613115,0.613115 0.445437,0.333204 0.924916,0.534336 1.473401,0.618066 0.192878,0.02944 0.571539,0.04026 0.775747,0.02215 0.307477,-0.02726 0.627407,-0.09755 0.929998,-0.204325 0.164251,-0.05796 0.16443,-0.05799 0.328681,-0.06216 0.09039,-0.0023 0.235744,-0.01481 0.323015,-0.02781 0.190257,-0.02835 0.404596,-0.03099 0.543821,-0.0067 0.05451,0.0095 0.193747,0.0481 0.309421,0.08576 0.115676,0.03767 0.234954,0.0714 0.265065,0.07497 0.05432,0.0064 0.05475,0.0062 0.05467,-0.02626 -1.25e-4,-0.05058 -0.03925,-0.202168 -0.08452,-0.327427 -0.05993,-0.165834 -0.09671,-0.326574 -0.09673,-0.422675 0,-0.116433 0.03022,-0.378303 0.06375,-0.552036 0.03968,-0.205586 0.09388,-0.418022 0.190842,-0.748034 0.107209,-0.364881 0.148634,-0.516585 0.163822,-0.599943 0.0177,-0.09714 0.015,-0.573375 -0.0043,-0.754453 -0.06471,-0.607815 -0.273741,-1.127223 -0.693579,-1.723455 -0.105596,-0.149961 -0.213113,-0.258804 -0.423438,-0.428658 -0.5701,-0.4604 -1.158628,-0.70579 -1.88035,-0.784021 -0.467852,-0.05071 -1.196542,0.0862 -1.678316,0.315337 l -0.107671,0.05121 -0.212486,0.0054 c -0.237168,0.0061 -0.397128,-0.0068 -0.604213,-0.0484 -0.243207,-0.04891 -0.489291,-0.149314 -0.677892,-0.276581 -0.047,-0.03172 -0.09102,-0.05767 -0.09782,-0.05767 -0.0294,0 0.02411,0.178707 0.115089,0.384354 0.119182,0.26939 0.116689,0.258276 0.115908,0.516688 -3.86e-4,0.124672 -0.0092,0.314244 -0.01955,0.421272 -0.01037,0.107027 -0.02189,0.265134 -0.0256,0.35135 -0.0066,0.152862 -0.0081,0.160272 -0.06124,0.298427 -0.150927,0.392354 -0.221774,0.710138 -0.25394,1.139052 -0.008,0.106752 0.005,0.456964 0.02214,0.59526 z m 2.978997,-0.402584 c 0.0322,-0.06811 0.0745,-0.109753 0.142995,-0.140757 0.134219,-0.06076 0.292459,0.0014 0.358339,0.140757 0.06592,0.13944 0.0029,0.301395 -0.142995,0.367433 -0.09579,0.04336 -0.218913,0.02129 -0.298948,-0.05359 -0.04813,-0.04503 -0.08618,-0.133559 -0.08618,-0.200507 0,-0.03604 0.0098,-0.0773 0.02679,-0.113338 z"
       id="path1117"
       inkscape:connector-curvature="0" />
  </g>
  <g
     id="g840"
     inkscape:groupmode="layer"
     inkscape:label="B.Mask-disabled" />
  <g
     id="g842"
     inkscape:groupmode="layer"
     inkscape:label="F.Mask"
     style="display:inline">
    <path
       style="fill:#000000;fill-opacity:1;stroke-width:0.01133385"
       d="m 0.02162699,12.32436 c 0.09292074,0 1.39982501,0.173914 1.96777331,0.261859 1.9076925,0.295397 3.3499343,0.686676 4.3166701,1.171108 l 0.1472337,0.07378 -0.028253,0.09383 c -0.3241767,1.076638 -0.74916,1.705158 -1.3875031,2.052019 -0.052623,0.02859 -0.1090089,0.05527 -0.1253013,0.05929 -0.025024,0.0062 -0.069879,-0.01971 -0.2890131,-0.16675 C 4.3285457,15.671763 3.9713398,15.417734 3.6724773,15.193361 3.2539092,14.879117 3.0533568,14.720422 1.6493848,13.592507 1.02457,13.090548 0.48952357,12.679182 0.09833664,12.399998 0.01212925,12.338473 -0.00218332,12.32436 0.02162699,12.32436 Z m 0.07352818,13.277609 c 0.34102911,-0.240197 0.92580833,-0.68962 1.55422963,-1.194477 1.403972,-1.127915 1.6045244,-1.28661 2.0230925,-1.600853 0.2988625,-0.224373 0.6560684,-0.478402 0.9507564,-0.676136 0.2191341,-0.147037 0.2639892,-0.172916 0.2890131,-0.16675 0.016292,0.004 0.072678,0.03069 0.1253013,0.05929 0.6383431,0.34686 1.0633264,0.97538 1.3875031,2.052019 l 0.028253,0.09383 -0.1472337,0.07378 c -0.9667358,0.484433 -2.4089776,0.875711 -4.3166701,1.171109 -0.6245881,0.09671 -1.92391248,0.267976 -1.97062495,0.259745 -0.01374584,-0.0024 0.01058364,-0.02521 0.07637982,-0.07156 z M 3.5473357,7.9381592 c 0.018798,0 0.5252574,0.2423999 0.8901769,0.4260529 1.6301369,0.8204008 2.8985829,1.7090269 3.9431485,2.7624209 l 0.1519744,0.153259 -0.031636,0.13405 C 8.3615397,12.004859 8.0762098,12.472299 7.6336592,12.834857 7.4576465,12.979055 7.1516428,13.156424 6.894803,13.26312 l -0.1098275,0.04562 -0.04389,-0.04762 C 6.6711681,13.185277 6.5200594,12.992389 6.4176195,12.848229 6.1856494,12.521787 6.0097683,12.223221 5.5481794,11.372317 5.3289759,10.968231 5.2366638,10.809555 5.0437706,10.505277 4.6112438,9.8229927 4.2095036,9.1414066 3.7744991,8.3518448 3.6886396,8.1960043 3.6085625,8.0616083 3.5965498,8.0531875 c -0.012013,-0.00842 -0.025937,-0.026272 -0.030946,-0.039668 -0.0186,-0.049758 -0.024806,-0.07536 -0.018268,-0.07536 z m 0.010374,22.0684048 c 0.00762,-0.02105 0.024633,-0.04701 0.037815,-0.05768 0.013183,-0.01067 0.093969,-0.146458 0.1795261,-0.30174 0.4346237,-0.788831 0.8364392,-1.470523 1.2687193,-2.152417 0.1928932,-0.30428 0.2852053,-0.462956 0.5044088,-0.86704 0.4615889,-0.850905 0.63747,-1.149471 0.8694401,-1.475913 0.1024399,-0.144159 0.2535486,-0.337048 0.3234656,-0.412899 l 0.04389,-0.04762 0.1098275,0.04562 c 0.171828,0.07138 0.3806791,0.181392 0.52918,0.278746 0.5594092,0.366735 0.9154659,0.885911 1.0770164,1.570432 l 0.031636,0.134049 -0.1519744,0.153259 c -0.8861455,0.893636 -1.9407152,1.672617 -3.2416497,2.394515 -0.3244227,0.180025 -0.9969836,0.521286 -1.3500673,0.685031 -0.1291854,0.05991 -0.2375655,0.108928 -0.2408442,0.108928 -0.0083,0 -0.00637,-0.0111 0.00961,-0.05528 z M 7.0967879,4.8336757 c 0.017884,0.01613 0.2441743,0.2079662 0.5028697,0.4263035 1.6575849,1.398991 2.5037274,2.2439598 3.2493784,3.2448728 0.240877,0.3233363 0.323569,0.4491213 0.314774,0.4788105 -0.01412,0.04767 -0.194677,0.3884227 -0.278008,0.5246666 -0.38525,0.6298699 -0.8214,0.9754589 -1.4237962,1.1281639 -0.125145,0.03172 -0.3248917,0.06288 -0.4450488,0.06943 l -0.061768,0.0034 -0.038313,-0.124672 C 8.6765336,9.8025241 8.5277188,9.3410813 8.0871571,8.0118279 7.5316194,6.3356716 7.3043395,5.6233939 7.0709185,4.827015 c -0.00585,-0.019947 -0.00274,-0.019148 0.025869,0.00666 z M 7.1475639,32.912304 C 7.3895496,32.111302 7.5873716,31.495609 8.0870894,29.98817 8.5271533,28.660684 8.676199,28.198561 8.9168757,27.415385 l 0.038313,-0.124672 0.061768,0.0034 c 0.1201571,0.0065 0.3199038,0.03771 0.4450488,0.06943 0.6023965,0.152706 1.0385465,0.498295 1.4237965,1.128165 0.08333,0.136243 0.263888,0.476997 0.278008,0.524667 0.0088,0.02969 -0.0739,0.155473 -0.314774,0.478809 -0.745651,1.000913 -1.5917938,1.845882 -3.2493787,3.244874 -0.2586954,0.218336 -0.4843805,0.409852 -0.5015229,0.425589 -0.017143,0.01574 -0.030753,0.02383 -0.030246,0.01799 5.097e-4,-0.0058 0.036361,-0.127926 0.079675,-0.2713 z M 11.046045,13.367075 c 0.04076,-0.429569 0.156872,-0.804751 0.41214,-1.331728 0.108387,-0.223754 0.151646,-0.278983 0.452753,-0.578027 0.51536,-0.511829 1.029467,-0.800013 1.681477,-0.942556 0.288228,-0.06301 0.828134,-0.04286 1.283576,0.04791 0.308227,0.06143 0.546604,0.141609 0.821705,0.276387 0.450289,0.220606 0.7925,0.522844 1.074603,0.949081 0.176894,0.267276 0.291664,0.510815 0.410263,0.870571 0.129359,0.392397 0.15915,0.568799 0.156956,0.929376 -0.0013,0.214147 -0.0067,0.295071 -0.03014,0.453354 -0.09915,0.66909 -0.309057,1.189956 -0.648763,1.609878 -0.10985,0.135789 -0.323639,0.341895 -0.464681,0.44798 -0.463097,0.348321 -1.070872,0.576909 -1.807297,0.679737 -0.197646,0.0276 -0.248503,0.02586 -0.529911,-0.01814 -0.649205,-0.101497 -1.182977,-0.310677 -1.610537,-0.631153 -0.138514,-0.103821 -0.37522,-0.333465 -0.487803,-0.473247 -0.360825,-0.447999 -0.59758,-1.036552 -0.704395,-1.751062 -0.02314,-0.154771 -0.02692,-0.359477 -0.0099,-0.538358 z m 2.06123,0.396191 c 0.02896,0.11527 0.106511,0.283076 0.174923,0.378494 0.05828,0.08129 0.204281,0.225063 0.282714,0.278405 0.08801,0.05986 0.256158,0.134375 0.365384,0.161922 0.145113,0.0366 0.397549,0.0366 0.542662,0 0.109226,-0.02755 0.27737,-0.102062 0.365384,-0.161922 0.07843,-0.05334 0.224435,-0.197119 0.282714,-0.278405 0.06941,-0.09681 0.146227,-0.264012 0.176578,-0.384348 0.0366,-0.145113 0.0366,-0.39755 0,-0.542664 -0.03035,-0.120336 -0.107165,-0.287534 -0.176578,-0.384349 -0.05828,-0.08128 -0.204281,-0.225061 -0.282714,-0.278404 -0.08801,-0.05986 -0.256158,-0.134374 -0.365384,-0.161922 -0.08278,-0.02088 -0.132435,-0.02555 -0.271331,-0.02555 -0.203899,0 -0.314083,0.02336 -0.479326,0.101641 -0.136582,0.0647 -0.224712,0.128312 -0.331816,0.239505 -0.158535,0.164589 -0.245128,0.327558 -0.294227,0.553739 -0.02934,0.135158 -0.02436,0.363057 0.01102,0.503863 z m -2.05122,10.325053 c 0.11009,-0.716182 0.345449,-1.299229 0.70433,-1.744815 0.112583,-0.139782 0.349289,-0.369425 0.487803,-0.473247 0.42756,-0.320476 0.961332,-0.529656 1.610537,-0.631153 0.281408,-0.04399 0.332265,-0.04574 0.529911,-0.01814 0.885159,0.123595 1.564623,0.419599 2.055083,0.895283 0.475278,0.460958 0.746489,1.038154 0.865658,1.842311 0.02346,0.158283 0.02884,0.239207 0.03014,0.453354 0.0022,0.360577 -0.0276,0.536979 -0.156956,0.929376 -0.118599,0.359756 -0.233369,0.603296 -0.410263,0.870572 -0.282103,0.426236 -0.624314,0.728474 -1.074603,0.949081 -0.275101,0.134777 -0.513478,0.214956 -0.821705,0.276386 -0.455442,0.09077 -0.995348,0.11092 -1.283576,0.04791 C 12.940404,27.342693 12.426297,27.05451 11.910937,26.54268 11.60983,26.243637 11.566571,26.188407 11.458184,25.964653 11.337817,25.716166 11.27045,25.557597 11.208767,25.377572 11.057479,24.93603 11.000147,24.452016 11.056054,24.08832 Z m 2.05122,0.702786 c 0.02896,0.115269 0.106511,0.283076 0.174923,0.378494 0.05828,0.08129 0.204281,0.225063 0.282714,0.278405 0.08801,0.05986 0.256158,0.134375 0.365384,0.161922 0.145113,0.0366 0.397549,0.0366 0.542662,0 0.109226,-0.02755 0.27737,-0.102062 0.365384,-0.161922 0.07843,-0.05334 0.224435,-0.197119 0.282714,-0.278405 0.06941,-0.09681 0.146227,-0.264011 0.176578,-0.384349 0.0366,-0.145112 0.0366,-0.397549 0,-0.542662 -0.03035,-0.120337 -0.107165,-0.287535 -0.176578,-0.384349 -0.05828,-0.08129 -0.204281,-0.225062 -0.282714,-0.278405 -0.08801,-0.05986 -0.256158,-0.134374 -0.365384,-0.161922 -0.145113,-0.0366 -0.397549,-0.0366 -0.542662,0 -0.120337,0.03035 -0.287536,0.107165 -0.384349,0.176578 -0.07991,0.05729 -0.224975,0.204071 -0.275807,0.279066 -0.08065,0.118985 -0.141161,0.262952 -0.173882,0.413686 -0.02934,0.135158 -0.02436,0.363056 0.01102,0.503863 z M 11.243596,2.6111616 c 0.01426,-0.011835 0.02332,-0.00761 0.05446,0.025408 0.02054,0.021782 0.05648,0.075998 0.07985,0.1204801 0.02337,0.044481 0.04714,0.080876 0.05282,0.080876 0.02401,0 0.09443,0.076531 0.136155,0.1479765 0.02472,0.042326 0.09013,0.1372759 0.145364,0.2110007 0.301598,0.4025888 0.382766,0.5172307 0.514725,0.7269998 0.221999,0.3528987 0.407438,0.6370837 0.533844,0.8181103 0.06312,0.090387 0.147221,0.2229937 0.186901,0.2946803 0.40143,0.7252243 0.83672,1.5344481 1.15743,2.1517082 l 0.184599,0.3552925 -0.01405,0.06406 c -0.05467,0.2491831 -0.243427,0.518792 -0.49776,0.710972 -0.191359,0.1445954 -0.537972,0.2931241 -0.840025,0.3599633 -0.265573,0.058767 -0.377696,0.069367 -0.725366,0.068576 -0.177658,-3.856e-4 -0.345846,-0.00551 -0.37375,-0.011337 -0.05987,-0.012511 -0.04935,0.026183 -0.107541,-0.3954167 C 11.627783,7.5909226 11.571056,6.9792664 11.45322,5.342707 11.360997,4.0618889 11.304538,3.3976079 11.243221,2.8719269 11.221839,2.6886123 11.221924,2.629147 11.243607,2.6111616 Z m -0.0046,32.5509124 c 0.05015,-0.385046 0.122733,-1.233624 0.214261,-2.504782 0.117836,-1.636559 0.174563,-2.248215 0.278025,-2.997804 0.05819,-0.421599 0.04767,-0.382905 0.107541,-0.395416 0.0279,-0.0058 0.196092,-0.01093 0.37375,-0.01134 0.34767,-7.92e-4 0.459793,0.0098 0.725366,0.06858 0.302053,0.06684 0.648666,0.215368 0.840025,0.359963 0.254333,0.19218 0.443089,0.46179 0.49776,0.710973 l 0.01405,0.06406 -0.184599,0.355292 c -0.32071,0.61726 -0.756,1.426484 -1.15743,2.151708 -0.03968,0.07169 -0.123785,0.204293 -0.186901,0.294681 -0.126406,0.181026 -0.311845,0.465211 -0.533844,0.81811 -0.131959,0.209769 -0.213127,0.324411 -0.514725,0.727 -0.05523,0.07372 -0.120645,0.168675 -0.145364,0.211 -0.04173,0.07145 -0.112143,0.147977 -0.136155,0.147977 -0.0057,0 -0.02945,0.03639 -0.05282,0.08088 -0.02337,0.04448 -0.05931,0.0987 -0.07985,0.12048 -0.03114,0.03302 -0.0402,0.03724 -0.05446,0.02541 -0.01918,-0.01592 -0.02093,-0.101625 -0.0046,-0.226764 z M 21.240318,12.585039 c 0.04899,-0.350887 0.217667,-0.648541 0.453298,-0.799908 l 0.06769,-0.04348 0.929376,6.08e-4 c 0.912858,5.96e-4 1.144071,0.0047 2.748459,0.04939 0.43947,0.01223 1.008146,0.02798 1.263725,0.035 0.255578,0.007 0.876988,0.01605 1.38091,0.02007 L 29,11.854007 l -0.25886,0.0949 c -3.175691,1.164236 -4.700539,1.678771 -6.269518,2.115549 -0.382564,0.1065 -0.360415,0.104578 -0.518668,0.04501 -0.212787,-0.08009 -0.426958,-0.284676 -0.546071,-0.521627 -0.154409,-0.307163 -0.213782,-0.664615 -0.166565,-1.0028 z m -8.6e-5,12.363254 c 0.04748,-0.348071 0.190332,-0.649439 0.405892,-0.85628 0.103478,-0.09929 0.194991,-0.159387 0.30682,-0.201478 0.158253,-0.05957 0.136104,-0.06149 0.518668,0.04501 1.568979,0.436778 3.093827,0.951314 6.269519,2.11555 l 0.258862,0.0949 -0.916222,0.0073 c -0.503922,0.004 -1.125332,0.01304 -1.38091,0.02006 -0.255579,0.007 -0.824255,0.02277 -1.263725,0.035 -1.604388,0.04464 -1.835601,0.0488 -2.748459,0.04939 l -0.929377,5.99e-4 -0.06769,-0.04348 c -0.343393,-0.220594 -0.526338,-0.73168 -0.453374,-1.266578 z"
       id="path1115"
       inkscape:connector-curvature="0" />
  </g>
  <g
     id="g844"
     inkscape:groupmode="layer"
     inkscape:label="Dwgs.User-disabled" />
  <g
     id="g846"
     inkscape:groupmode="layer"
     inkscape:label="Cmts.User-disabled" />
  <g
     id="g848"
     inkscape:groupmode="layer"
     inkscape:label="Eco1.User-disabled" />
  <g
     id="g850"
     inkscape:groupmode="layer"
     inkscape:label="Eco2.User-disabled" />
  <g
     id="g852"
     inkscape:groupmode="layer"
     inkscape:label="Edge.Cuts" />
  <g
     id="g854"
     inkscape:groupmode="layer"
     inkscape:label="Margin-disabled" />
  <g
     id="g856"
     inkscape:groupmode="layer"
     inkscape:label="B.CrtYd-disabled" />
  <g
     id="g858"
     inkscape:groupmode="layer"
     inkscape:label="F.CrtYd-disabled" />
  <g
     id="g860"
     inkscape:groupmode="layer"
     inkscape:label="B.Fab-disabled" />
  <g
     id="g862"
     inkscape:groupmode="layer"
     inkscape:label="F.Fab-disabled" />
  <g
     id="g864"
     inkscape:groupmode="layer"
     inkscape:label="Drill" />
</svg>
