<?xml version="1.0" encoding="UTF-8" standalone="no"?>
<!-- Created with Inkscape (http://www.inkscape.org/) -->

<svg
   xmlns:dc="http://purl.org/dc/elements/1.1/"
   xmlns:cc="http://creativecommons.org/ns#"
   xmlns:rdf="http://www.w3.org/1999/02/22-rdf-syntax-ns#"
   xmlns:svg="http://www.w3.org/2000/svg"
   xmlns="http://www.w3.org/2000/svg"
   xmlns:sodipodi="http://sodipodi.sourceforge.net/DTD/sodipodi-0.dtd"
   xmlns:inkscape="http://www.inkscape.org/namespaces/inkscape"
   width="39.78001mm"
   height="31.693001mm"
   viewBox="0 0 39.78001 31.693"
   version="1.1"
   id="svg7204"
   inkscape:version="0.92.4 (5da689c313, 2019-01-14)"
   sodipodi:docname="and-outline - Copy.svg">
  <defs
     id="defs7198" />
  <sodipodi:namedview
     id="base"
     pagecolor="#ffffff"
     bordercolor="#666666"
     borderopacity="1.0"
     inkscape:pageopacity="0.0"
     inkscape:pageshadow="2"
     inkscape:zoom="1.4"
     inkscape:cx="-9.4619711"
     inkscape:cy="77.74584"
     inkscape:document-units="mm"
     inkscape:current-layer="g7786"
     showgrid="true"
     inkscape:window-width="1858"
     inkscape:window-height="1177"
     inkscape:window-x="54"
     inkscape:window-y="-8"
     inkscape:window-maximized="1"
     borderlayer="true"
     fit-margin-top="0"
     fit-margin-left="0"
     fit-margin-right="0"
     fit-margin-bottom="0">
    <inkscape:grid
       id="grid7750"
       units="mm"
       type="xygrid"
       empspacing="1"
       spacingy="2.54"
       spacingx="2.54"
       originx="-64.073043"
       originy="-24.599145" />
  </sodipodi:namedview>
  <metadata
     id="metadata7201">
    <rdf:RDF>
      <cc:Work
         rdf:about="">
        <dc:format>image/svg+xml</dc:format>
        <dc:type
           rdf:resource="http://purl.org/dc/dcmitype/StillImage" />
        <dc:title />
      </cc:Work>
    </rdf:RDF>
  </metadata>
  <g
     id="g7756"
     sodipodi:insensitive="true"
     inkscape:groupmode="layer"
     inkscape:label="[fixed] BG"
     transform="translate(-64.07304,18.292146)">
    <rect
       id="rect7754"
       style="fill:#ffffff;fill-opacity:1;stroke:none"
       height="38"
       width="29"
       y="0"
       x="0" />
  </g>
  <g
     id="g7758"
     inkscape:groupmode="layer"
     inkscape:label="F.Cu"
     transform="translate(-64.07304,18.292146)" />
  <g
     id="g7760"
     inkscape:groupmode="layer"
     inkscape:label="B.Cu-disabled"
     transform="translate(-64.07304,18.292146)" />
  <g
     id="g7762"
     inkscape:groupmode="layer"
     inkscape:label="B.Adhes-disabled"
     transform="translate(-64.07304,18.292146)" />
  <g
     id="g7764"
     inkscape:groupmode="layer"
     inkscape:label="F.Adhes-disabled"
     transform="translate(-64.07304,18.292146)" />
  <g
     id="g7766"
     inkscape:groupmode="layer"
     inkscape:label="B.Paste-disabled"
     transform="translate(-64.07304,18.292146)" />
  <g
     id="g7768"
     inkscape:groupmode="layer"
     inkscape:label="F.Paste-disabled"
     transform="translate(-64.07304,18.292146)" />
  <g
     id="g7770"
     inkscape:groupmode="layer"
     inkscape:label="B.SilkS-disabled"
     transform="translate(-64.07304,18.292146)" />
  <g
     id="g7772"
     inkscape:groupmode="layer"
     inkscape:label="F.SilkS-disabled"
     transform="translate(-64.07304,18.292146)" />
  <g
     id="g7774"
     inkscape:groupmode="layer"
     inkscape:label="B.Mask-disabled"
     transform="translate(-64.07304,18.292146)" />
  <g
     id="g7776"
     inkscape:groupmode="layer"
     inkscape:label="F.Mask-disabled"
     transform="translate(-64.07304,18.292146)" />
  <g
     id="g7778"
     inkscape:groupmode="layer"
     inkscape:label="Dwgs.User-disabled"
     transform="translate(-64.07304,18.292146)" />
  <g
     id="g7780"
     inkscape:groupmode="layer"
     inkscape:label="Cmts.User-disabled"
     transform="translate(-64.07304,18.292146)" />
  <g
     id="g7782"
     inkscape:groupmode="layer"
     inkscape:label="Eco1.User-disabled"
     transform="translate(-64.07304,18.292146)" />
  <g
     id="g7784"
     inkscape:groupmode="layer"
     inkscape:label="Eco2.User-disabled"
     transform="translate(-64.07304,18.292146)" />
  <g
     id="g7786"
     inkscape:groupmode="layer"
     inkscape:label="Edge.Cuts"
     transform="translate(-64.07304,18.292146)">
    <path
       d="M64.122517 -18.242669L87.677629 -18.242669L88.5774292656 -18.2152199844L89.531691625 -18.132873875L90.5403449219 -17.9956320781L91.603318 -17.803496L92.1486002617 -17.6799777754L92.6936770938 -17.5290125156L93.2384146914 -17.3505989668L93.78267925 -17.144735875L94.3263369648 -16.9114219863L94.8692540313 -16.6506560469L95.4112966445 -16.3624368027L95.952331 -16.046763L96.497638998 -15.7006334258L97.0428933594 -15.3114620312L97.5881118848 -14.8798721836L98.133312375 -14.40648725L98.6785126309 -13.8919305977L99.2237304531 -13.3368255937L99.7689836426 -12.7417956055L100.31429 -12.107464L100.83917793 -11.434443625L101.323155938 -10.7331893125L101.766215352 -10.0041699062L102.1683475 -9.24785425L102.529543711 -8.4647111875L102.849795312 -7.6552095625L103.129093633 -6.81981821875L103.36743 -5.959006L103.558270781 -5.08066346074L103.694585625 -4.20231554844L103.776374531 -3.32396407129L103.8036375 -2.4456108375L103.776374531 -1.56725765527L103.694585625 -0.688906332812L103.558270781 0.18944132168L103.36743 1.0677835L103.128870098 1.93239942227L102.849405781 2.76957014688L102.529048887 3.57929561055L102.16781125 4.36157575L101.765704707 5.11641050195L101.322741094 5.84379980313L100.838932246 6.54374359023L100.31429 7.2162418L99.7689836426 7.85005167402L99.2237304531 8.44393394219L98.6785126309 8.99788953613L98.133312375 9.5119193875L97.5881118848 9.98602442793L97.0428933594 10.4202055891L96.497638998 10.8144638025L95.952331 11.1688L95.4115142734 11.4800733984L94.8695738125 11.764988375L94.3266700703 12.0233886016L93.7829635 12.25511775L93.2386145547 12.4600194922L92.6937836875 12.6379375L92.1486313516 12.7887154453L91.603318 12.912197L90.5400230313 13.1043362812L89.5314055 13.24158025L88.5773219687 13.3239275938L87.677629 13.351377L75.027644 13.351377L64.122517 13.351377L64.122517 -2.4589109L64.122517 -18.242669"
       style="font-style:normal;font-variant:normal;font-weight:normal;font-stretch:normal;letter-spacing:normal;word-spacing:normal;text-anchor:start;fill:none;fill-opacity:1;stroke:#000000;stroke-width:0.09895417;stroke-linecap:square;stroke-linejoin:miter;stroke-miterlimit:10.43000031;stroke-dasharray:none;stroke-dashoffset:0;stroke-opacity:1"
       id="path2089"
       inkscape:connector-curvature="0" />
  </g>
  <g
     id="g7788"
     inkscape:groupmode="layer"
     inkscape:label="Margin-disabled"
     transform="translate(-64.07304,18.292146)" />
  <g
     id="g7790"
     inkscape:groupmode="layer"
     inkscape:label="B.CrtYd-disabled"
     transform="translate(-64.07304,18.292146)" />
  <g
     id="g7792"
     inkscape:groupmode="layer"
     inkscape:label="F.CrtYd-disabled"
     transform="translate(-64.07304,18.292146)" />
  <g
     id="g7794"
     inkscape:groupmode="layer"
     inkscape:label="B.Fab-disabled"
     transform="translate(-64.07304,18.292146)" />
  <g
     id="g7796"
     inkscape:groupmode="layer"
     inkscape:label="F.Fab-disabled"
     transform="translate(-64.07304,18.292146)" />
  <g
     id="g7798"
     inkscape:groupmode="layer"
     inkscape:label="Drill"
     transform="translate(-64.07304,18.292146)" />
</svg>
